<svg version="1.1" xmlns="http://www.w3.org/2000/svg" viewBox="0 0 1651.7882239018559 881.1871138048296" width="3303.5764478037117" height="1762.374227609659" filter="invert(93%) hue-rotate(180deg)">
  <!-- svg-source:excalidraw -->
  
  <defs>
    <style class="style-fonts">
      @font-face {
        font-family: "Virgil";
        src: url("https://excalidraw.com/Virgil.woff2");
      }
      @font-face {
        font-family: "Cascadia";
        src: url("https://excalidraw.com/Cascadia.woff2");
      }
    </style>
  </defs>
  <rect x="0" y="0" width="1651.7882239018559" height="881.1871138048296" fill="#ffffff"></rect><g stroke-linecap="round" transform="translate(888.4766395458764 480.2380864405884) rotate(0 130.7515547822718 135.402795861483)"><path d="M7.86 8.16 C7.86 8.16, 7.86 8.16, 7.86 8.16 M7.86 8.16 C7.86 8.16, 7.86 8.16, 7.86 8.16 M3.66 19.09 C8.75 13.23, 13.84 7.38, 18.1 2.48 M3.66 19.09 C7.23 14.99, 10.79 10.89, 18.1 2.48 M2.75 26.24 C10.05 17.83, 17.36 9.42, 25.05 0.58 M2.75 26.24 C9.12 18.91, 15.49 11.58, 25.05 0.58 M2.48 32.64 C10.62 23.28, 18.75 13.93, 30.7 0.18 M2.48 32.64 C8.43 25.8, 14.37 18.96, 30.7 0.18 M2.88 38.28 C10.89 29.07, 18.89 19.86, 34.37 2.05 M2.88 38.28 C12.31 27.43, 21.74 16.58, 34.37 2.05 M2.62 44.68 C10.5 35.61, 18.38 26.55, 39.36 2.41 M2.62 44.68 C13.93 31.67, 25.23 18.66, 39.36 2.41 M2.36 51.07 C14.43 37.18, 26.51 23.29, 45 2.02 M2.36 51.07 C11.42 40.64, 20.49 30.21, 45 2.02 M2.75 56.72 C14.83 42.82, 26.91 28.92, 49.99 2.38 M2.75 56.72 C19.6 37.33, 36.45 17.95, 49.99 2.38 M2.49 63.11 C21.91 40.77, 41.34 18.42, 55.63 1.98 M2.49 63.11 C23.31 39.16, 44.13 15.21, 55.63 1.98 M2.23 69.51 C16.23 53.41, 30.23 37.3, 60.62 2.34 M2.23 69.51 C15.23 54.56, 28.23 39.61, 60.62 2.34 M2.62 75.16 C18.9 56.43, 35.18 37.71, 66.26 1.95 M2.62 75.16 C24.93 49.49, 47.25 23.82, 66.26 1.95 M2.36 81.55 C22.85 57.98, 43.34 34.41, 71.25 2.31 M2.36 81.55 C17.35 64.31, 32.34 47.07, 71.25 2.31 M2.76 87.2 C25.84 60.64, 48.92 34.09, 76.89 1.91 M2.76 87.2 C28.67 57.39, 54.58 27.58, 76.89 1.91 M2.49 93.59 C23.37 69.58, 44.24 45.58, 81.88 2.27 M2.49 93.59 C26.35 66.16, 50.2 38.72, 81.88 2.27 M2.23 99.99 C27.21 71.26, 52.18 42.53, 87.52 1.88 M2.23 99.99 C36 61.14, 69.78 22.29, 87.52 1.88 M2.63 105.64 C27.19 77.38, 51.75 49.13, 92.51 2.24 M2.63 105.64 C27.54 76.98, 52.44 48.33, 92.51 2.24 M2.37 112.03 C37.23 71.93, 72.09 31.83, 98.15 1.85 M2.37 112.03 C25.75 85.13, 49.14 58.22, 98.15 1.85 M2.1 118.43 C39.36 75.57, 76.62 32.72, 103.14 2.21 M2.1 118.43 C22.34 95.16, 42.57 71.88, 103.14 2.21 M2.5 124.07 C33.49 88.43, 64.48 52.78, 108.78 1.81 M2.5 124.07 C44.51 75.75, 86.51 27.43, 108.78 1.81 M2.24 130.47 C34.9 92.9, 67.55 55.33, 113.77 2.17 M2.24 130.47 C43.44 83.08, 84.64 35.68, 113.77 2.17 M2.63 136.11 C31.32 103.12, 60 70.12, 119.41 1.78 M2.63 136.11 C37.34 96.19, 72.05 56.26, 119.41 1.78 M2.37 142.51 C38 101.52, 73.64 60.53, 124.4 2.14 M2.37 142.51 C42.76 96.05, 83.16 49.58, 124.4 2.14 M2.11 148.91 C53.18 90.16, 104.26 31.4, 130.04 1.74 M2.11 148.91 C46.23 98.15, 90.36 47.39, 130.04 1.74 M2.5 154.55 C44.38 106.38, 86.25 58.21, 135.03 2.1 M2.5 154.55 C39.4 112.11, 76.29 69.67, 135.03 2.1 M2.24 160.95 C47.73 108.62, 93.22 56.3, 140.67 1.71 M2.24 160.95 C41.02 116.34, 79.8 71.74, 140.67 1.71 M2.64 166.59 C33.74 130.81, 64.84 95.03, 145.66 2.07 M2.64 166.59 C38.64 125.18, 74.64 83.77, 145.66 2.07 M2.38 172.99 C33.97 136.65, 65.57 100.3, 150.65 2.43 M2.38 172.99 C60.42 106.23, 118.45 39.46, 150.65 2.43 M2.11 179.39 C56.45 116.88, 110.79 54.37, 156.29 2.03 M2.11 179.39 C54.23 119.44, 106.35 59.48, 156.29 2.03 M2.51 185.03 C39.85 142.08, 77.18 99.13, 161.28 2.39 M2.51 185.03 C52.42 127.61, 102.34 70.19, 161.28 2.39 M2.25 191.43 C64.81 119.46, 127.37 47.5, 166.92 2 M2.25 191.43 C46.93 140.03, 91.61 88.64, 166.92 2 M1.99 197.83 C66.63 123.47, 131.27 49.1, 171.91 2.36 M1.99 197.83 C41.29 152.61, 80.6 107.39, 171.91 2.36 M2.38 203.47 C48.28 150.67, 94.17 97.88, 177.55 1.96 M2.38 203.47 C43.08 156.65, 83.79 109.83, 177.55 1.96 M2.12 209.87 C44.99 160.56, 87.85 111.25, 182.54 2.32 M2.12 209.87 C51.11 153.52, 100.09 97.16, 182.54 2.32 M2.51 215.51 C51.54 159.11, 100.57 102.71, 188.18 1.93 M2.51 215.51 C48.72 162.36, 94.92 109.21, 188.18 1.93 M2.25 221.91 C78.33 134.39, 154.41 46.87, 193.17 2.29 M2.25 221.91 C61.64 153.59, 121.03 85.28, 193.17 2.29 M1.99 228.31 C71.75 148.05, 141.52 67.8, 198.81 1.9 M1.99 228.31 C79.8 138.8, 157.61 49.29, 198.81 1.9 M2.39 233.95 C54.38 174.14, 106.37 114.33, 203.8 2.26 M2.39 233.95 C77.51 147.53, 152.63 61.12, 203.8 2.26 M2.12 240.35 C44.57 191.52, 87.01 142.7, 209.44 1.86 M2.12 240.35 C83.65 146.56, 165.18 52.77, 209.44 1.86 M1.21 247.5 C46.96 194.87, 92.71 142.24, 214.43 2.22 M1.21 247.5 C49.63 191.79, 98.06 136.08, 214.43 2.22 M2.91 251.63 C87.5 154.33, 172.09 57.02, 220.07 1.83 M2.91 251.63 C48.72 198.94, 94.53 146.25, 220.07 1.83 M5.28 255.01 C64.41 186.99, 123.54 118.96, 225.06 2.19 M5.28 255.01 C91.05 156.35, 176.82 57.68, 225.06 2.19 M6.33 259.9 C93.33 159.81, 180.34 59.72, 231.36 1.04 M6.33 259.9 C65.63 191.68, 124.94 123.45, 231.36 1.04 M8.69 263.28 C60.27 203.95, 111.85 144.61, 237 0.64 M8.69 263.28 C83.12 177.66, 157.54 92.04, 237 0.64 M11.71 265.91 C98.27 166.32, 184.84 66.74, 241.33 1.76 M11.71 265.91 C60.66 209.6, 109.6 153.29, 241.33 1.76 M14.73 268.53 C82.11 191.01, 149.5 113.49, 245 3.63 M14.73 268.53 C71.11 203.67, 127.49 138.82, 245 3.63 M19.06 269.64 C75.38 204.85, 131.71 140.06, 249.33 4.74 M19.06 269.64 C103.96 171.97, 188.87 74.3, 249.33 4.74 M23.39 270.76 C87.45 197.06, 151.52 123.37, 252.35 7.37 M23.39 270.76 C93.03 190.65, 162.67 110.54, 252.35 7.37 M27.06 272.63 C113.05 173.71, 199.03 74.8, 255.37 9.99 M27.06 272.63 C92.36 197.52, 157.65 122.41, 255.37 9.99 M33.36 271.48 C78.49 219.57, 123.62 167.65, 257.74 13.37 M33.36 271.48 C80.08 217.74, 126.79 164, 257.74 13.37 M38.35 271.84 C96.57 204.86, 154.79 137.89, 259.44 17.5 M38.35 271.84 C119.65 178.32, 200.94 84.8, 259.44 17.5 M43.99 271.45 C103.74 202.72, 163.48 133.99, 262.46 20.13 M43.99 271.45 C89.45 219.15, 134.92 166.85, 262.46 20.13 M48.98 271.81 C112.75 198.44, 176.52 125.08, 262.86 25.77 M48.98 271.81 C105.31 207, 161.65 142.19, 262.86 25.77 M54.62 271.41 C120.3 195.86, 185.98 120.31, 261.94 32.92 M54.62 271.41 C117.2 199.43, 179.77 127.44, 261.94 32.92 M59.61 271.77 C136.17 183.7, 212.72 95.63, 262.33 38.57 M59.61 271.77 C114.25 208.92, 168.89 146.06, 262.33 38.57 M64.6 272.13 C134.54 191.67, 204.49 111.2, 262.07 44.96 M64.6 272.13 C110.86 218.91, 157.13 165.68, 262.07 44.96 M70.24 271.74 C128.18 205.08, 186.12 138.43, 262.47 50.61 M70.24 271.74 C133.56 198.9, 196.87 126.06, 262.47 50.61 M75.23 272.1 C114.85 226.52, 154.47 180.93, 262.2 57 M75.23 272.1 C130.8 208.17, 186.37 144.24, 262.2 57 M80.87 271.7 C148.28 194.16, 215.69 116.61, 261.94 63.4 M80.87 271.7 C123.09 223.13, 165.31 174.57, 261.94 63.4 M85.86 272.06 C142.2 207.25, 198.55 142.43, 262.34 69.04 M85.86 272.06 C143.96 205.22, 202.07 138.38, 262.34 69.04 M91.5 271.67 C159.07 193.94, 226.64 116.21, 262.08 75.44 M91.5 271.67 C128.67 228.91, 165.84 186.14, 262.08 75.44 M96.49 272.03 C147.73 213.08, 198.98 154.12, 262.47 81.09 M96.49 272.03 C148.91 211.72, 201.34 151.41, 262.47 81.09 M102.13 271.63 C147.27 219.7, 192.41 167.78, 262.21 87.48 M102.13 271.63 C160.98 203.94, 219.82 136.25, 262.21 87.48 M107.12 271.99 C140.55 233.53, 173.98 195.07, 261.95 93.88 M107.12 271.99 C167.41 202.63, 227.71 133.27, 261.95 93.88 M112.76 271.6 C148.97 229.95, 185.17 188.3, 262.34 99.52 M112.76 271.6 C144.62 234.95, 176.48 198.29, 262.34 99.52 M117.75 271.96 C158.1 225.54, 198.44 179.13, 262.08 105.92 M117.75 271.96 C150.83 233.9, 183.91 195.85, 262.08 105.92 M123.39 271.56 C177.85 208.91, 232.31 146.26, 262.48 111.57 M123.39 271.56 C169.54 218.47, 215.69 165.38, 262.48 111.57 M128.38 271.92 C174.08 219.35, 219.77 166.78, 262.21 117.96 M128.38 271.92 C163.35 231.69, 198.32 191.46, 262.21 117.96 M134.02 271.53 C178.66 220.17, 223.31 168.82, 261.95 124.36 M134.02 271.53 C178.62 220.23, 223.22 168.92, 261.95 124.36 M139.01 271.89 C169.42 236.9, 199.84 201.91, 262.35 130 M139.01 271.89 C170.92 235.18, 202.84 198.46, 262.35 130 M144.65 271.49 C172.34 239.64, 200.03 207.79, 262.09 136.4 M144.65 271.49 C183.97 226.27, 223.28 181.04, 262.09 136.4 M149.64 271.85 C177.07 240.3, 204.5 208.74, 262.48 142.04 M149.64 271.85 C188.16 227.54, 226.69 183.22, 262.48 142.04 M155.28 271.46 C184.86 237.43, 214.45 203.4, 262.22 148.44 M155.28 271.46 C177.6 245.78, 199.92 220.11, 262.22 148.44 M160.27 271.82 C199.13 227.12, 237.99 182.41, 261.96 154.84 M160.27 271.82 C198.5 227.83, 236.74 183.85, 261.96 154.84 M165.91 271.43 C204.43 227.12, 242.94 182.82, 262.35 160.48 M165.91 271.43 C198.27 234.2, 230.63 196.98, 262.35 160.48 M170.9 271.79 C199.91 238.41, 228.92 205.04, 262.09 166.88 M170.9 271.79 C205.2 232.32, 239.51 192.86, 262.09 166.88 M175.89 272.15 C196.22 248.75, 216.56 225.36, 262.49 172.52 M175.89 272.15 C204.23 239.54, 232.58 206.93, 262.49 172.52 M181.53 271.75 C206.42 243.11, 231.32 214.48, 262.22 178.92 M181.53 271.75 C205.93 243.68, 230.34 215.6, 262.22 178.92 M186.52 272.11 C210.44 244.59, 234.36 217.07, 261.96 185.32 M186.52 272.11 C204.85 251.02, 223.18 229.93, 261.96 185.32 M192.16 271.72 C207.17 254.45, 222.18 237.18, 262.36 190.96 M192.16 271.72 C210.56 250.55, 228.96 229.38, 262.36 190.96 M197.15 272.08 C215.55 250.91, 233.95 229.74, 262.1 197.36 M197.15 272.08 C222.37 243.06, 247.6 214.04, 262.1 197.36 M202.79 271.68 C220.57 251.23, 238.35 230.77, 262.49 203 M202.79 271.68 C221.27 250.42, 239.75 229.17, 262.49 203 M207.78 272.04 C222.68 254.89, 237.59 237.75, 262.23 209.4 M207.78 272.04 C224.99 252.24, 242.21 232.43, 262.23 209.4 M213.42 271.65 C224.46 258.95, 235.5 246.24, 261.97 215.8 M213.42 271.65 C225.35 257.92, 237.28 244.2, 261.97 215.8 M218.41 272.01 C232.99 255.23, 247.58 238.45, 262.36 221.44 M218.41 272.01 C228.34 260.58, 238.27 249.16, 262.36 221.44 M224.05 271.61 C234.42 259.68, 244.79 247.75, 262.1 227.84 M224.05 271.61 C232.37 262.04, 240.7 252.46, 262.1 227.84 M229.69 271.22 C236.39 263.52, 243.08 255.82, 262.49 233.48 M229.69 271.22 C241.63 257.48, 253.58 243.74, 262.49 233.48 M235.33 270.82 C243.57 261.35, 251.81 251.87, 262.23 239.88 M235.33 270.82 C244.04 260.81, 252.74 250.81, 262.23 239.88 M239.01 272.69 C246.6 263.96, 254.19 255.24, 261.32 247.03 M239.01 272.69 C244 266.95, 249 261.2, 261.32 247.03 M249.25 267.02 C251.53 264.39, 253.81 261.76, 260.4 254.19 M249.25 267.02 C251.49 264.43, 253.74 261.84, 260.4 254.19" stroke="#868e96" stroke-width="0.5" fill="none"></path><path d="M32 0 M32 0 C89.85 0, 147.69 0, 229.5 0 M32 0 C100.27 0, 168.54 0, 229.5 0 M229.5 0 C250.84 0, 261.5 10.67, 261.5 32 M229.5 0 C250.84 0, 261.5 10.67, 261.5 32 M261.5 32 C261.5 77.83, 261.5 123.66, 261.5 238.81 M261.5 32 C261.5 91.4, 261.5 150.8, 261.5 238.81 M261.5 238.81 C261.5 260.14, 250.84 270.81, 229.5 270.81 M261.5 238.81 C261.5 260.14, 250.84 270.81, 229.5 270.81 M229.5 270.81 C153.78 270.81, 78.06 270.81, 32 270.81 M229.5 270.81 C179.67 270.81, 129.83 270.81, 32 270.81 M32 270.81 C10.67 270.81, 0 260.14, 0 238.81 M32 270.81 C10.67 270.81, 0 260.14, 0 238.81 M0 238.81 C0 184.28, 0 129.75, 0 32 M0 238.81 C0 161.34, 0 83.87, 0 32 M0 32 C0 10.67, 10.67 0, 32 0 M0 32 C0 10.67, 10.67 0, 32 0" stroke="#000000" stroke-width="1" fill="none"></path></g><g transform="translate(949.9630728681875 485.4061320841565) rotate(0 69.26512145996094 38.76034232676045)"><text x="69.26512145996094" y="0" font-family="Virgil, Segoe UI Emoji" font-size="20.672182574272217px" fill="#000000" text-anchor="middle" style="white-space: pre;" direction="ltr" dominant-baseline="text-before-edge">Container App</text><text x="69.26512145996094" y="25.84022821784027" font-family="Virgil, Segoe UI Emoji" font-size="20.672182574272217px" fill="#000000" text-anchor="middle" style="white-space: pre;" direction="ltr" dominant-baseline="text-before-edge"></text><text x="69.26512145996094" y="51.68045643568054" font-family="Virgil, Segoe UI Emoji" font-size="20.672182574272217px" fill="#000000" text-anchor="middle" style="white-space: pre;" direction="ltr" dominant-baseline="text-before-edge">Router</text></g><g stroke-linecap="round"><g transform="translate(893.7100224795713 525.3108370110463) rotate(359.1062892673372 126.30967589867578 3.689655234625775)"><path d="M-0.33 1.07 C41.76 2.06, 210.9 5.98, 252.95 6.79 M1.7 0.59 C43.63 1.13, 210.68 3.78, 252.2 4.85" stroke="#000000" stroke-width="1" fill="none"></path></g></g><mask></mask><g stroke-linecap="round"><g transform="translate(896.7561755610905 572.1384285065851) rotate(359.1062892673372 125.97842105866232 2.8257346223044806)"><path d="M0.5 -0.8 C42.47 -0.07, 210.73 4.16, 252.65 5.44 M-0.69 1.4 C41.04 2.76, 209.8 5.89, 251.75 6.45" stroke="#000000" stroke-width="1" fill="none"></path></g></g><mask></mask><g transform="translate(644.5084996363132 412.70146203686386) rotate(0 20.67998504638672 12)"><text x="20.67998504638672" y="0" font-family="Virgil, Segoe UI Emoji" font-size="20px" fill="#000000" text-anchor="middle" style="white-space: pre;" direction="ltr" dominant-baseline="text-before-edge">CDN</text></g><g transform="translate(10 10) rotate(0 175.26983642578128 36)"><text x="0" y="0" font-family="Virgil, Segoe UI Emoji" font-size="20px" fill="#1864ab" text-anchor="start" style="white-space: pre;" direction="ltr" dominant-baseline="text-before-edge">MedApp Micro-frontend architecture</text><text x="0" y="24" font-family="Virgil, Segoe UI Emoji" font-size="20px" fill="#1864ab" text-anchor="start" style="white-space: pre;" direction="ltr" dominant-baseline="text-before-edge"></text><text x="0" y="48" font-family="Virgil, Segoe UI Emoji" font-size="20px" fill="#1864ab" text-anchor="start" style="white-space: pre;" direction="ltr" dominant-baseline="text-before-edge">carl0sarb0leda</text></g><g stroke-linecap="round" transform="translate(749.8874878723232 31.631625806112197) rotate(0 88.99999999999994 173.5)"><path d="M32 0 M32 0 C69.47 -0.95, 104.77 0.49, 146 0 M32 0 C55.81 1.19, 81.15 1.26, 146 0 M146 0 C166.49 -0.37, 178.05 11.71, 178 32 M146 0 C168.92 -1.14, 178.24 11.2, 178 32 M178 32 C176.44 136.05, 175.87 239.17, 178 315 M178 32 C177.2 133.18, 178.18 235.64, 178 315 M178 315 C178.55 338.16, 168.65 346.67, 146 347 M178 315 C177.96 335.08, 166.04 344.76, 146 347 M146 347 C107.28 347.08, 68.18 346, 32 347 M146 347 C113.91 348.27, 83.11 346.53, 32 347 M32 347 C12.14 347.98, 1.74 337.93, 0 315 M32 347 C10.68 347.85, 1.83 336.21, 0 315 M0 315 C1.11 245.44, 1.11 173.67, 0 32 M0 315 C0.02 240.16, 0.48 164.83, 0 32 M0 32 C0.07 11.55, 11.77 0.64, 32 0 M0 32 C-2.13 10.81, 9.52 1.43, 32 0" stroke="#000000" stroke-width="1" fill="none"></path></g><g transform="translate(778.4475388366786 85.1316258061122) rotate(0 60.439949035644474 120)"><text x="60.43994903564453" y="0" font-family="Virgil, Segoe UI Emoji" font-size="20px" fill="#000000" text-anchor="middle" style="white-space: pre;" direction="ltr" dominant-baseline="text-before-edge">App A</text><text x="60.43994903564453" y="24" font-family="Virgil, Segoe UI Emoji" font-size="20px" fill="#000000" text-anchor="middle" style="white-space: pre;" direction="ltr" dominant-baseline="text-before-edge">/dashboards</text><text x="60.43994903564453" y="48" font-family="Virgil, Segoe UI Emoji" font-size="20px" fill="#000000" text-anchor="middle" style="white-space: pre;" direction="ltr" dominant-baseline="text-before-edge"></text><text x="60.43994903564453" y="72" font-family="Virgil, Segoe UI Emoji" font-size="20px" fill="#000000" text-anchor="middle" style="white-space: pre;" direction="ltr" dominant-baseline="text-before-edge">/portal</text><text x="60.43994903564453" y="96" font-family="Virgil, Segoe UI Emoji" font-size="20px" fill="#000000" text-anchor="middle" style="white-space: pre;" direction="ltr" dominant-baseline="text-before-edge"></text><text x="60.43994903564453" y="120" font-family="Virgil, Segoe UI Emoji" font-size="20px" fill="#000000" text-anchor="middle" style="white-space: pre;" direction="ltr" dominant-baseline="text-before-edge">/stock</text><text x="60.43994903564453" y="144" font-family="Virgil, Segoe UI Emoji" font-size="20px" fill="#000000" text-anchor="middle" style="white-space: pre;" direction="ltr" dominant-baseline="text-before-edge"></text><text x="60.43994903564453" y="168" font-family="Virgil, Segoe UI Emoji" font-size="20px" fill="#000000" text-anchor="middle" style="white-space: pre;" direction="ltr" dominant-baseline="text-before-edge">/finance</text><text x="60.43994903564453" y="192" font-family="Virgil, Segoe UI Emoji" font-size="20px" fill="#000000" text-anchor="middle" style="white-space: pre;" direction="ltr" dominant-baseline="text-before-edge"></text><text x="60.43994903564453" y="216" font-family="Virgil, Segoe UI Emoji" font-size="20px" fill="#000000" text-anchor="middle" style="white-space: pre;" direction="ltr" dominant-baseline="text-before-edge">/other</text></g><g stroke-linecap="round" transform="translate(621.1486216747826 459.1011593808639) rotate(0 52.30522169475012 194.8197071700605)"><path d="M0.55 -1.94 C23.92 0.92, 48 -0.1, 103.08 1.83 M-0.31 -0.21 C21.88 -0.06, 43.26 1.14, 104.01 -0.91 M103.9 -0.48 C103.32 110.93, 102.54 220.66, 105.71 389.54 M105.03 -0.2 C105.89 121.03, 104.95 242.65, 104.91 389.66 M103.2 389.92 C76.23 391.51, 52.44 388.01, -0.23 391.27 M105.09 388.96 C77.32 389.41, 51.44 388.53, 0.65 389.47 M-0.28 389.51 C-0.79 293.74, -1.4 195.94, -0.26 0.16 M0.41 389.98 C-0.74 266.55, -0.58 143.9, -0.17 -0.26" stroke="#000000" stroke-width="1" fill="none"></path></g><g transform="translate(398.05752467925794 461.6676282992721) rotate(0 77.47992706298828 24)"><text x="77.47992706298828" y="0" font-family="Virgil, Segoe UI Emoji" font-size="20px" fill="#000000" text-anchor="middle" style="white-space: pre;" direction="ltr" dominant-baseline="text-before-edge">Storage Service</text><text x="77.47992706298828" y="24" font-family="Virgil, Segoe UI Emoji" font-size="20px" fill="#000000" text-anchor="middle" style="white-space: pre;" direction="ltr" dominant-baseline="text-before-edge">MicroApps</text></g><g stroke-linecap="round" transform="translate(448.2372728083147 538.9357593877603) rotate(0 23.64279050120365 21.21611018012686)"><path d="M9.32 4.13 C9.32 4.13, 9.32 4.13, 9.32 4.13 M9.32 4.13 C9.32 4.13, 9.32 4.13, 9.32 4.13 M1.28 17.47 C7.29 16.07, 9.27 10.07, 18.24 1.02 M2.13 17.57 C8.74 12.67, 12.48 4.95, 16.27 2.26 M2.29 24.88 C8.02 18.68, 13.83 11.63, 22.83 0.86 M3.42 23.58 C8.74 17.09, 15.06 10.82, 23.93 0.99 M5.29 28.81 C9.4 21.42, 12.91 18.05, 30.02 1.41 M3.55 28.2 C9.64 20.95, 16.15 14.35, 28.97 1.16 M3.3 31.51 C14.13 23.02, 24.03 14.46, 31 3.8 M5.69 33.96 C12.29 25.66, 18.67 17.85, 31.55 3.13 M6.63 36.15 C19.54 24.94, 30.08 12.02, 34.1 5.19 M8.32 36.21 C16.41 25.78, 24.74 15.71, 34.75 4.94 M11.29 37.97 C20.2 24.37, 33.69 15.55, 40.48 6.29 M10.63 38.73 C19.88 27.28, 29.15 17.26, 40.18 5.41 M13.9 39.47 C21.14 32.57, 28.04 25.02, 41.15 9.2 M13.38 40.57 C25.32 28.48, 35.78 16.8, 42 8.47 M19.38 41.79 C30.3 32.8, 37.12 20.16, 44.69 12.97 M19.61 41.87 C27.76 30.47, 37.46 18.88, 44.59 12.26 M25.41 40 C33.56 33.76, 41.8 22.33, 47.46 17.36 M24.99 40.74 C31.93 32.37, 41.23 24.57, 47.76 15.42 M30.05 41.96 C34.76 37.35, 37.22 30, 46.17 18.74 M30.45 40.57 C34.59 35.31, 40.59 30.2, 47.23 20.55 M34.64 44.48 C37.1 39.92, 39.45 38.12, 45.41 28.97 M33.22 43.91 C35.9 40.41, 37.62 38.15, 45.22 29.49" stroke="#15aabf" stroke-width="0.5" fill="none"></path><path d="M26.1 -0.61 C31.01 -0.52, 36.31 2.38, 39.96 5.8 C43.6 9.22, 47.45 15.24, 47.98 19.91 C48.52 24.58, 46.04 30.32, 43.18 33.81 C40.32 37.3, 35.75 39.63, 30.82 40.86 C25.9 42.1, 18.44 42.84, 13.62 41.23 C8.79 39.62, 4.14 35.5, 1.88 31.22 C-0.39 26.93, -1.18 19.98, 0.01 15.52 C1.2 11.06, 4.4 7.14, 9.03 4.46 C13.66 1.78, 24.57 0.2, 27.8 -0.55 C31.02 -1.29, 28.46 -0.36, 28.38 -0.01 M29.98 1.72 C34.42 2.53, 40.45 5.77, 43.19 9.35 C45.93 12.92, 46.91 18.42, 46.42 23.16 C45.92 27.91, 43.95 34.43, 40.2 37.83 C36.46 41.23, 29.26 43.54, 23.96 43.56 C18.66 43.59, 12.24 40.94, 8.43 37.98 C4.62 35.02, 2.16 30.15, 1.1 25.78 C0.04 21.41, -0.24 15.62, 2.05 11.76 C4.34 7.9, 9.98 4.43, 14.85 2.62 C19.71 0.8, 28.57 1.04, 31.26 0.88 C33.95 0.72, 30.95 1.31, 30.99 1.64" stroke="#000000" stroke-width="1" fill="none"></path></g><g transform="translate(460.2860939986553 550.1498141891184) rotate(0 11.375991821289062 10)"><text x="11.375991821289062" y="0" font-family="Virgil, Segoe UI Emoji" font-size="16px" fill="#000000" text-anchor="middle" style="white-space: pre;" direction="ltr" dominant-baseline="text-before-edge">MA</text></g><g stroke-linecap="round" transform="translate(864.9868644103988 461.85207846360504) rotate(0 165.93650844831018 204.66751767061226)"><path d="M0.97 -0.37 C67.38 -1.56, 132.53 -0.91, 331.16 -0.18 M0.33 0.34 C104.31 -0.39, 209.08 0.73, 332.26 0.58 M332.74 -0.16 C333.24 125.56, 333.21 251.22, 332.62 409.05 M332.12 0.32 C331.39 123.46, 331.35 246.91, 331.86 409.4 M331.48 408.01 C255.6 407.4, 175.94 409.75, -0.26 410.35 M331.35 408.69 C239.61 408.77, 148.63 408.2, -0.28 409.79 M0.87 408.86 C1.59 253.09, 1.74 99.49, 0.36 -0.5 M-0.06 409.81 C-2.07 309.43, -2.27 210.13, -0.36 -0.36" stroke="#000000" stroke-width="1" fill="none"></path></g><g stroke-linecap="round"><g transform="translate(870.0313057824819 827.458151941008) rotate(0 162.21816220825144 0.7066749177657812)"><path d="M0.27 0.5 C54.26 0.97, 269.27 1.63, 323.29 1.69 M-1.05 -0.28 C53.36 -0.05, 271.36 -0.37, 325.49 0.05" stroke="#000000" stroke-width="1" fill="none"></path></g></g><mask></mask><g transform="translate(15.841859124358962 135.70450821812278) rotate(0 103.42991638183594 48)"><text x="103.42991638183594" y="0" font-family="Virgil, Segoe UI Emoji" font-size="20px" fill="#000000" text-anchor="middle" style="white-space: pre;" direction="ltr" dominant-baseline="text-before-edge">Design type:</text><text x="103.42991638183594" y="24" font-family="Virgil, Segoe UI Emoji" font-size="20px" fill="#000000" text-anchor="middle" style="white-space: pre;" direction="ltr" dominant-baseline="text-before-edge"></text><text x="103.42991638183594" y="48" font-family="Virgil, Segoe UI Emoji" font-size="20px" fill="#000000" text-anchor="middle" style="white-space: pre;" direction="ltr" dominant-baseline="text-before-edge">Vertical Split</text><text x="103.42991638183594" y="72" font-family="Virgil, Segoe UI Emoji" font-size="20px" fill="#000000" text-anchor="middle" style="white-space: pre;" direction="ltr" dominant-baseline="text-before-edge">Domain Driven Design</text></g><g transform="translate(68.15320281004506 300.96928876910147) rotate(0 56.86993408203125 36)"><text x="56.86993408203125" y="0" font-family="Virgil, Segoe UI Emoji" font-size="20px" fill="#000000" text-anchor="middle" style="white-space: pre;" direction="ltr" dominant-baseline="text-before-edge">Composition:</text><text x="56.86993408203125" y="24" font-family="Virgil, Segoe UI Emoji" font-size="20px" fill="#000000" text-anchor="middle" style="white-space: pre;" direction="ltr" dominant-baseline="text-before-edge"></text><text x="56.86993408203125" y="48" font-family="Virgil, Segoe UI Emoji" font-size="20px" fill="#000000" text-anchor="middle" style="white-space: pre;" direction="ltr" dominant-baseline="text-before-edge">Client side</text></g><g transform="translate(72.36613121381117 452.53997816900164) rotate(0 50.82994842529297 36)"><text x="50.82994842529297" y="0" font-family="Virgil, Segoe UI Emoji" font-size="20px" fill="#000000" text-anchor="middle" style="white-space: pre;" direction="ltr" dominant-baseline="text-before-edge">Routing:</text><text x="50.82994842529297" y="24" font-family="Virgil, Segoe UI Emoji" font-size="20px" fill="#000000" text-anchor="middle" style="white-space: pre;" direction="ltr" dominant-baseline="text-before-edge"></text><text x="50.82994842529297" y="48" font-family="Virgil, Segoe UI Emoji" font-size="20px" fill="#000000" text-anchor="middle" style="white-space: pre;" direction="ltr" dominant-baseline="text-before-edge">Client side</text></g><g transform="translate(49.456937731526864 619.4936309091725) rotate(0 71.98992919921875 48)"><text x="71.98992919921875" y="0" font-family="Virgil, Segoe UI Emoji" font-size="20px" fill="#000000" text-anchor="middle" style="white-space: pre;" direction="ltr" dominant-baseline="text-before-edge">Communication:</text><text x="71.98992919921875" y="24" font-family="Virgil, Segoe UI Emoji" font-size="20px" fill="#000000" text-anchor="middle" style="white-space: pre;" direction="ltr" dominant-baseline="text-before-edge"></text><text x="71.98992919921875" y="48" font-family="Virgil, Segoe UI Emoji" font-size="20px" fill="#000000" text-anchor="middle" style="white-space: pre;" direction="ltr" dominant-baseline="text-before-edge">Custom events</text><text x="71.98992919921875" y="72" font-family="Virgil, Segoe UI Emoji" font-size="20px" fill="#000000" text-anchor="middle" style="white-space: pre;" direction="ltr" dominant-baseline="text-before-edge">Web storage</text></g><g stroke-linecap="round"><g transform="translate(123.27535383310732 233.79974069523394) rotate(0 0.2006658744847698 32.31255411149726)"><path d="M0 0 C0.1 16.86, 0.21 33.72, 0.4 64.63" stroke="#2b8a3e" stroke-width="1.5" fill="none" stroke-dasharray="1.5 7"></path></g><g transform="translate(123.27535383310732 233.79974069523394) rotate(0 0.2006658744847698 32.31255411149726)"><path d="M0.4 64.63 L-6.02 51.07 L6.66 50.99 L0.4 64.63" stroke="none" stroke-width="0" fill="#2b8a3e" fill-rule="evenodd"></path><path d="M0.4 64.63 C-1.27 61.09, -2.95 57.55, -6.02 51.07 M-6.02 51.07 C-2.24 51.05, 1.55 51.02, 6.66 50.99 M6.66 50.99 C4.58 55.51, 2.51 60.03, 0.4 64.63 M0.4 64.63 C0.4 64.63, 0.4 64.63, 0.4 64.63" stroke="#2b8a3e" stroke-width="1.5" fill="none"></path></g></g><mask></mask><g stroke-linecap="round"><g transform="translate(125.47048822492889 377.562150399398) rotate(0 0.08742383020526745 36.29121346674083)"><path d="M0 0 C0.06 26.37, 0.13 52.74, 0.17 72.58" stroke="#2b8a3e" stroke-width="1.5" fill="none" stroke-dasharray="1.5 7"></path></g><g transform="translate(125.47048822492889 377.562150399398) rotate(0 0.08742383020526745 36.29121346674083)"><path d="M0.17 72.58 L-6.2 59 L6.48 58.97 L0.17 72.58" stroke="none" stroke-width="0" fill="#2b8a3e" fill-rule="evenodd"></path><path d="M0.17 72.58 C-2.14 67.65, -4.46 62.72, -6.2 59 M-6.2 59 C-3.52 59, -0.84 58.99, 6.48 58.97 M6.48 58.97 C4.55 63.14, 2.61 67.32, 0.17 72.58 M0.17 72.58 C0.17 72.58, 0.17 72.58, 0.17 72.58" stroke="#2b8a3e" stroke-width="1.5" fill="none"></path></g></g><mask></mask><g stroke-linecap="round"><g transform="translate(127.61944109876401 533.9846027283184) rotate(0 0.3278314587105058 36.30817505804919)"><path d="M0 0 C0.19 20.67, 0.37 41.34, 0.66 72.62" stroke="#2b8a3e" stroke-width="1.5" fill="none" stroke-dasharray="1.5 7"></path></g><g transform="translate(127.61944109876401 533.9846027283184) rotate(0 0.3278314587105058 36.30817505804919)"><path d="M0.66 72.62 L-5.81 59.08 L6.87 58.97 L0.66 72.62" stroke="none" stroke-width="0" fill="#2b8a3e" fill-rule="evenodd"></path><path d="M0.66 72.62 C-1.18 68.76, -3.02 64.91, -5.81 59.08 M-5.81 59.08 C-2.62 59.05, 0.56 59.02, 6.87 58.97 M6.87 58.97 C5.32 62.38, 3.76 65.8, 0.66 72.62 M0.66 72.62 C0.66 72.62, 0.66 72.62, 0.66 72.62" stroke="#2b8a3e" stroke-width="1.5" fill="none"></path></g></g><mask></mask><g transform="translate(29.291784556418065 147.33441419648932) rotate(0 5.4499969482421875 12)"><text x="5.4499969482421875" y="0" font-family="Virgil, Segoe UI Emoji" font-size="20px" fill="#2b8a3e" text-anchor="middle" style="white-space: pre;" direction="ltr" dominant-baseline="text-before-edge">1.</text></g><g transform="translate(44.59935376504097 298.0012255541028) rotate(0 9.859992980957031 12)"><text x="9.859992980957031" y="0" font-family="Virgil, Segoe UI Emoji" font-size="20px" fill="#2b8a3e" text-anchor="middle" style="white-space: pre;" direction="ltr" dominant-baseline="text-before-edge">2.</text></g><g transform="translate(55.665635752779394 455.54026748698266) rotate(0 9.549995422363281 12)"><text x="9.549995422363281" y="0" font-family="Virgil, Segoe UI Emoji" font-size="20px" fill="#2b8a3e" text-anchor="middle" style="white-space: pre;" direction="ltr" dominant-baseline="text-before-edge">3.</text></g><g transform="translate(18.943791634580293 632.8518237515157) rotate(0 9.139991760253906 12)"><text x="9.139991760253906" y="0" font-family="Virgil, Segoe UI Emoji" font-size="20px" fill="#2b8a3e" text-anchor="middle" style="white-space: pre;" direction="ltr" dominant-baseline="text-before-edge">4.</text></g><g stroke-linecap="round" transform="translate(1000.8290126015131 23.748106957134382) rotate(0 75.5 91.5)"><path d="M32 0 M32 0 C49.08 -1.52, 69.52 0.25, 119 0 M32 0 C57.15 -0.59, 82.87 -0.95, 119 0 M119 0 C141.93 0.97, 151.91 12.59, 151 32 M119 0 C140.62 1.25, 152.35 8.64, 151 32 M151 32 C151.14 69.71, 149.63 101.86, 151 151 M151 32 C150.15 55.82, 150.07 80.88, 151 151 M151 151 C149.37 171.25, 142.13 182.65, 119 183 M151 151 C152.65 170.33, 138.36 182.18, 119 183 M119 183 C97.33 184.28, 78.85 181.63, 32 183 M119 183 C89.2 183.82, 60.76 184.09, 32 183 M32 183 C12.11 184.01, 0.27 173.44, 0 151 M32 183 C12.37 183.95, -1.88 170.76, 0 151 M0 151 C-1.73 113.3, -2.81 79.01, 0 32 M0 151 C0.7 117.15, 0.34 82.97, 0 32 M0 32 C-0.12 9.91, 9.88 -0.86, 32 0 M0 32 C-1.49 9.39, 11.6 -0.03, 32 0" stroke="#000000" stroke-width="1" fill="none"></path></g><g transform="translate(1021.6570460487787 28.848106957134405) rotate(0 54.671966552734375 86.39999999999998)"><text x="54.671966552734375" y="0" font-family="Virgil, Segoe UI Emoji" font-size="16px" fill="#000000" text-anchor="middle" style="white-space: pre;" direction="ltr" dominant-baseline="text-before-edge">App B</text><text x="54.671966552734375" y="19.2" font-family="Virgil, Segoe UI Emoji" font-size="16px" fill="#000000" text-anchor="middle" style="white-space: pre;" direction="ltr" dominant-baseline="text-before-edge">/portal</text><text x="54.671966552734375" y="38.4" font-family="Virgil, Segoe UI Emoji" font-size="16px" fill="#000000" text-anchor="middle" style="white-space: pre;" direction="ltr" dominant-baseline="text-before-edge"></text><text x="54.671966552734375" y="57.599999999999994" font-family="Virgil, Segoe UI Emoji" font-size="16px" fill="#000000" text-anchor="middle" style="white-space: pre;" direction="ltr" dominant-baseline="text-before-edge"></text><text x="54.671966552734375" y="76.8" font-family="Virgil, Segoe UI Emoji" font-size="16px" fill="#000000" text-anchor="middle" style="white-space: pre;" direction="ltr" dominant-baseline="text-before-edge">/portal/login</text><text x="54.671966552734375" y="96" font-family="Virgil, Segoe UI Emoji" font-size="16px" fill="#000000" text-anchor="middle" style="white-space: pre;" direction="ltr" dominant-baseline="text-before-edge"></text><text x="54.671966552734375" y="115.19999999999999" font-family="Virgil, Segoe UI Emoji" font-size="16px" fill="#000000" text-anchor="middle" style="white-space: pre;" direction="ltr" dominant-baseline="text-before-edge">/portal/about</text><text x="54.671966552734375" y="134.4" font-family="Virgil, Segoe UI Emoji" font-size="16px" fill="#000000" text-anchor="middle" style="white-space: pre;" direction="ltr" dominant-baseline="text-before-edge"></text><text x="54.671966552734375" y="153.6" font-family="Virgil, Segoe UI Emoji" font-size="16px" fill="#000000" text-anchor="middle" style="white-space: pre;" direction="ltr" dominant-baseline="text-before-edge">/portal/other</text></g><g stroke-linecap="round" transform="translate(1159.7716710666748 188.8378749657636) rotate(0 71 91.5)"><path d="M32 0 M32 0 C49.4 1.39, 71.61 -0.9, 110 0 M32 0 C59.14 0.34, 85.64 -0.01, 110 0 M110 0 C130.2 0.96, 141.75 10.27, 142 32 M110 0 C133.31 -1.88, 139.85 12.68, 142 32 M142 32 C143.15 69.49, 142.08 102.77, 142 151 M142 32 C142.78 57.99, 142.36 84.38, 142 151 M142 151 C143.59 171.69, 132.64 182.37, 110 183 M142 151 C143.05 170.13, 129.22 182.72, 110 183 M110 183 C87.71 180.98, 67.94 184.33, 32 183 M110 183 C92.43 184.66, 74.23 183.21, 32 183 M32 183 C10.97 181.31, 1.69 172.58, 0 151 M32 183 C9.2 181.33, -1.77 170.46, 0 151 M0 151 C2.09 122.3, -0.32 92.13, 0 32 M0 151 C-0.08 118.43, 0.55 87.42, 0 32 M0 32 C-0.06 10.13, 11.3 -0.27, 32 0 M0 32 C-0.77 12.4, 12.12 -0.05, 32 0" stroke="#000000" stroke-width="1" fill="none"></path></g><g transform="translate(1178.667697678003 193.93787496576363) rotate(0 52.103973388671875 86.39999999999998)"><text x="52.103973388671875" y="0" font-family="Virgil, Segoe UI Emoji" font-size="16px" fill="#000000" text-anchor="middle" style="white-space: pre;" direction="ltr" dominant-baseline="text-before-edge">AppC</text><text x="52.103973388671875" y="19.2" font-family="Virgil, Segoe UI Emoji" font-size="16px" fill="#000000" text-anchor="middle" style="white-space: pre;" direction="ltr" dominant-baseline="text-before-edge">/stock</text><text x="52.103973388671875" y="38.4" font-family="Virgil, Segoe UI Emoji" font-size="16px" fill="#000000" text-anchor="middle" style="white-space: pre;" direction="ltr" dominant-baseline="text-before-edge"></text><text x="52.103973388671875" y="57.599999999999994" font-family="Virgil, Segoe UI Emoji" font-size="16px" fill="#000000" text-anchor="middle" style="white-space: pre;" direction="ltr" dominant-baseline="text-before-edge"></text><text x="52.103973388671875" y="76.8" font-family="Virgil, Segoe UI Emoji" font-size="16px" fill="#000000" text-anchor="middle" style="white-space: pre;" direction="ltr" dominant-baseline="text-before-edge">/stock/home</text><text x="52.103973388671875" y="96" font-family="Virgil, Segoe UI Emoji" font-size="16px" fill="#000000" text-anchor="middle" style="white-space: pre;" direction="ltr" dominant-baseline="text-before-edge"></text><text x="52.103973388671875" y="115.19999999999999" font-family="Virgil, Segoe UI Emoji" font-size="16px" fill="#000000" text-anchor="middle" style="white-space: pre;" direction="ltr" dominant-baseline="text-before-edge">/stock/about</text><text x="52.103973388671875" y="134.4" font-family="Virgil, Segoe UI Emoji" font-size="16px" fill="#000000" text-anchor="middle" style="white-space: pre;" direction="ltr" dominant-baseline="text-before-edge"></text><text x="52.103973388671875" y="153.6" font-family="Virgil, Segoe UI Emoji" font-size="16px" fill="#000000" text-anchor="middle" style="white-space: pre;" direction="ltr" dominant-baseline="text-before-edge">/stock/other</text></g><g stroke-linecap="round"><g transform="translate(890.5692840687036 172.52775976788746) rotate(0 53.928776878393705 -20.67372595903265)"><path d="M0 0 C21.6 -14.84, 43.21 -29.68, 59.59 -40.93 M0 0 C17.11 -11.75, 34.21 -23.5, 59.59 -40.93 M59.59 -40.93 C72.22 -41.04, 84.85 -41.15, 107.86 -41.35 M59.59 -40.93 C78.34 -41.09, 97.09 -41.25, 107.86 -41.35" stroke="#000000" stroke-width="1" fill="none"></path></g><g transform="translate(890.5692840687036 172.52775976788746) rotate(0 53.928776878393705 -20.67372595903265)"><path d="M8 0 C8 0.46, 7.96 0.93, 7.88 1.39 C7.8 1.85, 7.68 2.3, 7.52 2.74 C7.36 3.17, 7.16 3.6, 6.93 4 C6.7 4.4, 6.43 4.79, 6.13 5.14 C5.83 5.5, 5.5 5.83, 5.14 6.13 C4.79 6.43, 4.4 6.7, 4 6.93 C3.6 7.16, 3.17 7.36, 2.74 7.52 C2.3 7.68, 1.85 7.8, 1.39 7.88 C0.93 7.96, 0.46 8, 0 8 C-0.46 8, -0.93 7.96, -1.39 7.88 C-1.85 7.8, -2.3 7.68, -2.74 7.52 C-3.17 7.36, -3.6 7.16, -4 6.93 C-4.4 6.7, -4.79 6.43, -5.14 6.13 C-5.5 5.83, -5.83 5.5, -6.13 5.14 C-6.43 4.79, -6.7 4.4, -6.93 4 C-7.16 3.6, -7.36 3.17, -7.52 2.74 C-7.68 2.3, -7.8 1.85, -7.88 1.39 C-7.96 0.93, -8 0.46, -8 0 C-8 -0.46, -7.96 -0.93, -7.88 -1.39 C-7.8 -1.85, -7.68 -2.3, -7.52 -2.74 C-7.36 -3.17, -7.16 -3.6, -6.93 -4 C-6.7 -4.4, -6.43 -4.79, -6.13 -5.14 C-5.83 -5.5, -5.5 -5.83, -5.14 -6.13 C-4.79 -6.43, -4.4 -6.7, -4 -6.93 C-3.6 -7.16, -3.17 -7.36, -2.74 -7.52 C-2.3 -7.68, -1.85 -7.8, -1.39 -7.88 C-0.93 -7.96, -0.46 -8, 0 -8 C0.46 -8, 0.93 -7.96, 1.39 -7.88 C1.85 -7.8, 2.3 -7.68, 2.74 -7.52 C3.17 -7.36, 3.6 -7.16, 4 -6.93 C4.4 -6.7, 4.79 -6.43, 5.14 -6.13 C5.5 -5.83, 5.83 -5.5, 6.13 -5.14 C6.43 -4.79, 6.7 -4.4, 6.93 -4 C7.16 -3.6, 7.36 -3.17, 7.52 -2.74 C7.68 -2.3, 7.8 -1.85, 7.88 -1.39 C7.96 -0.93, 7.98 -0.23, 8 0 C8.02 0.23, 8.02 -0.23, 8 0" stroke="none" stroke-width="0" fill="#000000"></path></g><g transform="translate(890.5692840687036 172.52775976788746) rotate(0 53.928776878393705 -20.67372595903265)"><path d="M107.86 -41.35 L94.32 -34.89 L94.21 -47.57 L107.86 -41.35" stroke="none" stroke-width="0" fill="#000000" fill-rule="evenodd"></path><path d="M107.86 -41.35 C102.95 -39.01, 98.04 -36.67, 94.32 -34.89 M107.86 -41.35 C103.97 -39.49, 100.08 -37.64, 94.32 -34.89 M94.32 -34.89 C94.29 -38.21, 94.26 -41.53, 94.21 -47.57 M94.32 -34.89 C94.28 -39.82, 94.23 -44.74, 94.21 -47.57 M94.21 -47.57 C98.05 -45.82, 101.9 -44.06, 107.86 -41.35 M94.21 -47.57 C98.72 -45.51, 103.23 -43.46, 107.86 -41.35 M107.86 -41.35 C107.86 -41.35, 107.86 -41.35, 107.86 -41.35 M107.86 -41.35 C107.86 -41.35, 107.86 -41.35, 107.86 -41.35" stroke="#000000" stroke-width="1" fill="none"></path></g></g><mask></mask><g stroke-linecap="round"><g transform="translate(889.3512459000567 219.3435073482815) rotate(0 133.1487966402924 43.94479020113204)"><path d="M0 0 C24.84 17.09, 49.68 34.19, 119.36 82.15 M0 0 C33 22.71, 65.99 45.41, 119.36 82.15 M119.36 82.15 C161.01 83.77, 202.65 85.4, 266.3 87.89 M119.36 82.15 C163.02 83.85, 206.67 85.56, 266.3 87.89" stroke="#000000" stroke-width="1" fill="none"></path></g><g transform="translate(889.3512459000567 219.3435073482815) rotate(0 133.1487966402924 43.94479020113204)"><path d="M8 0 C8 0.46, 7.96 0.93, 7.88 1.39 C7.8 1.85, 7.68 2.3, 7.52 2.74 C7.36 3.17, 7.16 3.6, 6.93 4 C6.7 4.4, 6.43 4.79, 6.13 5.14 C5.83 5.5, 5.5 5.83, 5.14 6.13 C4.79 6.43, 4.4 6.7, 4 6.93 C3.6 7.16, 3.17 7.36, 2.74 7.52 C2.3 7.68, 1.85 7.8, 1.39 7.88 C0.93 7.96, 0.46 8, 0 8 C-0.46 8, -0.93 7.96, -1.39 7.88 C-1.85 7.8, -2.3 7.68, -2.74 7.52 C-3.17 7.36, -3.6 7.16, -4 6.93 C-4.4 6.7, -4.79 6.43, -5.14 6.13 C-5.5 5.83, -5.83 5.5, -6.13 5.14 C-6.43 4.79, -6.7 4.4, -6.93 4 C-7.16 3.6, -7.36 3.17, -7.52 2.74 C-7.68 2.3, -7.8 1.85, -7.88 1.39 C-7.96 0.93, -8 0.46, -8 0 C-8 -0.46, -7.96 -0.93, -7.88 -1.39 C-7.8 -1.85, -7.68 -2.3, -7.52 -2.74 C-7.36 -3.17, -7.16 -3.6, -6.93 -4 C-6.7 -4.4, -6.43 -4.79, -6.13 -5.14 C-5.83 -5.5, -5.5 -5.83, -5.14 -6.13 C-4.79 -6.43, -4.4 -6.7, -4 -6.93 C-3.6 -7.16, -3.17 -7.36, -2.74 -7.52 C-2.3 -7.68, -1.85 -7.8, -1.39 -7.88 C-0.93 -7.96, -0.46 -8, 0 -8 C0.46 -8, 0.93 -7.96, 1.39 -7.88 C1.85 -7.8, 2.3 -7.68, 2.74 -7.52 C3.17 -7.36, 3.6 -7.16, 4 -6.93 C4.4 -6.7, 4.79 -6.43, 5.14 -6.13 C5.5 -5.83, 5.83 -5.5, 6.13 -5.14 C6.43 -4.79, 6.7 -4.4, 6.93 -4 C7.16 -3.6, 7.36 -3.17, 7.52 -2.74 C7.68 -2.3, 7.8 -1.85, 7.88 -1.39 C7.96 -0.93, 7.98 -0.23, 8 0 C8.02 0.23, 8.02 -0.23, 8 0" stroke="none" stroke-width="0" fill="#000000"></path></g><g transform="translate(889.3512459000567 219.3435073482815) rotate(0 133.1487966402924 43.94479020113204)"><path d="M266.3 87.89 L252.47 93.69 L252.96 81.02 L266.3 87.89" stroke="none" stroke-width="0" fill="#000000" fill-rule="evenodd"></path><path d="M266.3 87.89 C263.42 89.1, 260.54 90.3, 252.47 93.69 M266.3 87.89 C262.47 89.49, 258.65 91.1, 252.47 93.69 M252.47 93.69 C252.61 90.1, 252.75 86.51, 252.96 81.02 M252.47 93.69 C252.61 89.93, 252.76 86.17, 252.96 81.02 M252.96 81.02 C258.21 83.72, 263.45 86.42, 266.3 87.89 M252.96 81.02 C256.98 83.09, 261 85.16, 266.3 87.89 M266.3 87.89 C266.3 87.89, 266.3 87.89, 266.3 87.89 M266.3 87.89 C266.3 87.89, 266.3 87.89, 266.3 87.89" stroke="#000000" stroke-width="1" fill="none"></path></g></g><mask></mask><g transform="translate(531.3556641543969 146.79336066290784) rotate(0 99.16992950439453 37.5)"><text x="99.16992950439453" y="0" font-family="Virgil, Segoe UI Emoji" font-size="20px" fill="#000000" text-anchor="middle" style="white-space: pre;" direction="ltr" dominant-baseline="text-before-edge">Each app (team) is </text><text x="99.16992950439453" y="25" font-family="Virgil, Segoe UI Emoji" font-size="20px" fill="#000000" text-anchor="middle" style="white-space: pre;" direction="ltr" dominant-baseline="text-before-edge">responsible for </text><text x="99.16992950439453" y="50" font-family="Virgil, Segoe UI Emoji" font-size="20px" fill="#000000" text-anchor="middle" style="white-space: pre;" direction="ltr" dominant-baseline="text-before-edge">a business domain</text></g><g stroke-linecap="round" transform="translate(649.9600104590329 502.74313578770125) rotate(0 23.64279050120365 21.21611018012686)"><path d="M2.54 10.16 C2.54 10.16, 2.54 10.16, 2.54 10.16 M2.54 10.16 C2.54 10.16, 2.54 10.16, 2.54 10.16 M0.41 15.35 C5.52 12.39, 5.82 8.96, 14.53 0.82 M2.15 17.45 C6.08 11.21, 9.99 6.91, 15.7 2.26 M-0.05 25.59 C7.96 14.44, 16.12 7.06, 17.52 3.24 M2.24 24.24 C6.5 18.89, 9.7 14.33, 18.03 3.44 M3.75 27.14 C10.81 21.59, 13.77 14.37, 23.35 3.61 M3.89 26.31 C7.09 23.11, 12.96 18.27, 24.66 4.19 M6.42 31.54 C12.01 21.9, 20.41 12.6, 33.06 1.69 M6.84 31.44 C16.17 18.7, 24.13 9.04, 30.74 1.64 M10.06 31.87 C17.75 22.01, 26.88 12.23, 35.67 1.44 M8.46 33.21 C15.25 28.04, 19.7 21.51, 35.95 1.93 M10.34 39.15 C19.36 27.65, 31.78 14.39, 40.02 7.1 M10.73 37.45 C20.4 27.39, 28.64 16.93, 39.26 6.36 M14.51 37.71 C21.85 29.57, 28.02 22.55, 40.32 9.34 M15.15 39.64 C24.7 28.76, 33.9 16.47, 41.42 7.59 M16.91 41.1 C22.97 35.43, 31.15 28.27, 43.49 11.68 M19.23 40.93 C28.27 28.67, 36.94 19.21, 45.23 10.12 M24.85 42.92 C27.95 34.3, 33.67 29.54, 45.23 16.57 M23.35 41.01 C30.99 32.22, 38.83 22.41, 44.59 16.45 M28.76 41.21 C34.42 33.35, 40.93 23.86, 45.95 18.51 M27.74 42.58 C30.79 38.19, 35.48 33.5, 47.29 20.23 M33.43 40.29 C37.18 34.76, 45.53 29.25, 46.98 27.21 M34.72 41.23 C37.39 37.24, 40.9 33.41, 48.24 25.51" stroke="#15aabf" stroke-width="0.5" fill="none"></path><path d="M31.43 0.24 C36.14 1.52, 41.04 6.2, 43.75 10.34 C46.46 14.47, 48.54 20.7, 47.69 25.05 C46.83 29.39, 42.41 33.67, 38.62 36.42 C34.83 39.16, 29.81 41.38, 24.95 41.5 C20.09 41.61, 13.44 39.87, 9.46 37.09 C5.48 34.31, 2.23 29.33, 1.08 24.84 C-0.07 20.34, 0.12 14.04, 2.58 10.12 C5.03 6.2, 10.64 2.76, 15.81 1.3 C20.99 -0.17, 30.32 1.11, 33.63 1.32 C36.94 1.54, 35.72 2.01, 35.69 2.59 M29.23 -0.42 C34.15 0.3, 39.78 5.9, 42.58 9.53 C45.38 13.15, 46.45 17.11, 46.03 21.33 C45.61 25.55, 43.3 31.37, 40.06 34.86 C36.82 38.35, 31.51 41.65, 26.59 42.27 C21.67 42.89, 14.53 41, 10.54 38.59 C6.56 36.17, 4.27 31.76, 2.68 27.78 C1.09 23.79, -0.63 19.12, 1 14.7 C2.64 10.28, 7.82 3.75, 12.5 1.25 C17.18 -1.24, 26.5 -0.21, 29.11 -0.27 C31.72 -0.33, 28.23 0.22, 28.16 0.88" stroke="#000000" stroke-width="1" fill="none"></path></g><g transform="translate(967.1413859731488 836.1955115527414) rotate(0 61.07994842529297 12)"><text x="61.07994842529297" y="0" font-family="Virgil, Segoe UI Emoji" font-size="20px" fill="#000000" text-anchor="middle" style="white-space: pre;" direction="ltr" dominant-baseline="text-before-edge">Web storage</text></g><g stroke-linecap="round" transform="translate(449.34296249857886 603.1789049814424) rotate(0 24.5 22)"><path d="M3.07 10.62 C3.07 10.62, 3.07 10.62, 3.07 10.62 M3.07 10.62 C3.07 10.62, 3.07 10.62, 3.07 10.62 M2.37 18.3 C8.38 11.67, 13.73 5.41, 18.13 1.19 M0.78 17.98 C6.5 12.6, 9.75 9.14, 16.21 1.05 M0.8 24.96 C9.19 17.11, 14.7 7.26, 21.52 1.48 M-0.05 25.92 C4.67 22.01, 10.13 15.49, 21.99 2.07 M3.53 29.29 C11.23 21.28, 20.33 9.97, 28.06 2.75 M3.22 29.75 C9.82 19.79, 19.14 9.46, 27.45 1.19 M4.07 35.07 C11.5 23.6, 18.87 17.9, 33.72 2.85 M4.58 32.23 C12.76 24.1, 20.85 14.47, 31.97 1.44 M5.1 35.73 C14.25 28.15, 20.56 19, 36.74 2.69 M7.75 36.61 C12.64 30.32, 18.38 23.9, 36.13 4.32 M7.92 39.51 C21.47 27.04, 32.96 11.7, 39.68 6.1 M8.54 39.81 C18.69 29.35, 30.14 17.63, 38.78 5.66 M11.81 39.84 C24.61 28.73, 35.96 19.92, 41.46 10 M13.13 40.89 C25.47 28.07, 35.18 15.72, 41.95 7.88 M16.8 43.5 C21.79 38.3, 30.14 30.1, 46.09 9.73 M17.84 43.21 C27.93 30.88, 37.92 20.36, 44.58 11.38 M21.65 45.41 C27.2 34.95, 33.38 26.78, 48.7 14.97 M21.94 43.39 C28.13 36.61, 32.61 30.72, 47.42 14.5 M26.56 44.86 C34.22 36.68, 40.41 27.82, 50.96 20.59 M25.46 45.47 C32.83 36.49, 40.52 27.38, 49.45 18.48 M31.17 44.27 C38.21 37.88, 43.26 33.69, 48.32 24.51 M33.94 43.85 C36.16 39.34, 40.1 35.15, 50.03 23.34" stroke="#15aabf" stroke-width="0.5" fill="none"></path><path d="M33.58 0.76 C38.22 2.09, 42.46 7.38, 45.02 11.67 C47.58 15.96, 49.72 21.92, 48.92 26.5 C48.12 31.08, 44.34 36.16, 40.24 39.16 C36.14 42.15, 29.67 44.5, 24.33 44.47 C18.98 44.45, 12.21 42.06, 8.15 39.01 C4.09 35.95, 0.84 30.82, -0.05 26.14 C-0.93 21.45, 0.17 15.08, 2.83 10.9 C5.5 6.72, 10.2 2.2, 15.95 1.07 C21.71 -0.05, 32.95 2.99, 37.36 4.16 C41.77 5.32, 42.58 7.73, 42.41 8.06 M23.21 1.34 C28.26 1.06, 35.83 2.67, 40.11 5.25 C44.39 7.82, 48.08 12.09, 48.92 16.78 C49.75 21.46, 47.52 29.07, 45.09 33.38 C42.67 37.68, 39.05 41.18, 34.36 42.6 C29.68 44.03, 22.24 43.45, 16.98 41.94 C11.72 40.43, 5.37 37.72, 2.82 33.53 C0.26 29.34, 0.74 21.4, 1.63 16.8 C2.51 12.19, 4.18 8.51, 8.11 5.89 C12.04 3.26, 22.72 1.92, 25.21 1.05 C27.69 0.19, 23.24 0.33, 23.02 0.7" stroke="#000000" stroke-width="1" fill="none"></path></g><g transform="translate(462.6428545382194 615.1225557953385) rotate(0 11.375991821289062 10)"><text x="11.375991821289062" y="0" font-family="Virgil, Segoe UI Emoji" font-size="16px" fill="#000000" text-anchor="middle" style="white-space: pre;" direction="ltr" dominant-baseline="text-before-edge">MA</text></g><g stroke-linecap="round" transform="translate(447.9534171888021 672.8563612209789) rotate(0 23.64279050120365 21.216110180126748)"><path d="M7.42 6.45 C7.42 6.45, 7.42 6.45, 7.42 6.45 M7.42 6.45 C7.42 6.45, 7.42 6.45, 7.42 6.45 M0.01 22.27 C4.74 14.05, 9.35 11.52, 18.51 2.88 M0.53 19.43 C5.44 15.19, 10.18 9.4, 16.76 1.47 M0.38 23.68 C7.4 18.49, 11.64 11.72, 23.5 0.45 M3.04 24.56 C6.13 20.24, 10.13 15.84, 22.89 2.08 M2.55 28.22 C13.45 18.76, 22.36 6.39, 27.75 2.35 M3.17 28.52 C11.12 20.61, 20.35 11.43, 26.85 1.92 M3.16 32.33 C15.24 21.99, 25.89 13.98, 30.85 4.74 M4.48 33.37 C16.05 21.43, 24.99 9.98, 31.33 2.62 M7.5 36.73 C12.48 31.54, 20.83 23.33, 36.79 2.96 M8.53 36.45 C18.63 24.12, 28.61 13.59, 35.27 4.61 M11.68 39.4 C17.75 28.35, 24.42 19.6, 40.71 6.69 M11.98 37.38 C18.59 30.1, 23.51 23.71, 39.43 6.23 M15.94 39.61 C24.87 29.99, 32.29 19.71, 44.28 10.81 M14.84 40.22 C23.56 29.68, 32.58 19.05, 42.77 8.7 M17.27 42.79 C26.73 33.49, 34.24 26.47, 42.96 13.21 M20.04 42.37 C24.04 35.93, 29.7 29.77, 44.66 12.04 M25.58 43.21 C30.97 34.65, 35.24 30.4, 45.49 14.28 M24.54 41.32 C30.77 33.78, 36.19 27.75, 47.28 16.53 M29.71 39.85 C37.57 32.71, 42.81 28.96, 45.98 22.98 M30.26 40.55 C34.67 36.11, 38.14 32.28, 46.64 22.9" stroke="#15aabf" stroke-width="0.5" fill="none"></path><path d="M20.88 -0.68 C25.85 -1.42, 33.14 1.28, 37.36 3.84 C41.59 6.41, 45.05 10.27, 46.21 14.71 C47.37 19.14, 46.4 26.18, 44.33 30.46 C42.26 34.75, 38.07 38.53, 33.77 40.41 C29.47 42.29, 23.29 42.85, 18.53 41.72 C13.76 40.6, 8.2 37.3, 5.19 33.66 C2.17 30.02, 0.11 24.38, 0.46 19.87 C0.81 15.36, 3.01 9.99, 7.29 6.6 C11.57 3.21, 22.04 0.48, 26.13 -0.49 C30.22 -1.45, 31.94 0.29, 31.82 0.82 M14.47 1.27 C19.2 -0.86, 27.59 -1.03, 32.3 0.56 C37.01 2.16, 40.49 6.72, 42.76 10.83 C45.02 14.95, 46.51 21.03, 45.91 25.24 C45.3 29.44, 42.82 33.19, 39.11 36.05 C35.4 38.9, 28.67 42.29, 23.63 42.38 C18.58 42.47, 12.8 39.48, 8.83 36.57 C4.86 33.66, 0.8 29.3, -0.18 24.92 C-1.17 20.53, 0.42 13.94, 2.93 10.27 C5.44 6.6, 12.68 4.33, 14.88 2.9 C17.07 1.47, 15.85 1.48, 16.12 1.7" stroke="#000000" stroke-width="1" fill="none"></path></g><g transform="translate(460.00223837914274 684.070416022337) rotate(0 11.375991821289062 10)"><text x="11.375991821289062" y="0" font-family="Virgil, Segoe UI Emoji" font-size="16px" fill="#000000" text-anchor="middle" style="white-space: pre;" direction="ltr" dominant-baseline="text-before-edge">MA</text></g><g stroke-linecap="round" transform="translate(648.018475934572 618.4888154452233) rotate(0 23.64279050120365 21.21611018012686)"><path d="M4.28 9.02 C4.28 9.02, 4.28 9.02, 4.28 9.02 M4.28 9.02 C4.28 9.02, 4.28 9.02, 4.28 9.02 M3.22 19.7 C6.04 12.48, 13.15 4.16, 15.7 -0.27 M1.32 18.5 C5.98 11.92, 12.1 6.7, 17.94 0.88 M-0.67 27.03 C3.23 21.42, 10.54 14.85, 21.57 0.19 M0.03 26.13 C6.2 18.61, 12.99 11.59, 21.49 1.39 M4.23 29.14 C13.26 19.92, 19.47 9.74, 26.57 1.84 M3.47 29.27 C8.59 21.94, 14.1 14.42, 26.13 1.87 M4.34 32.17 C10.31 25.77, 15.29 18.08, 30.74 0.89 M5.39 32.86 C13.37 22.57, 20.49 13.63, 31.61 2.32 M5.8 35.76 C17 26.58, 23.03 15.65, 36.15 3.2 M6.73 36.93 C17.65 23.11, 29.26 10.15, 35.76 4.5 M12.36 36.89 C20.63 25.55, 30.78 16.92, 38.16 6.6 M11.63 37.5 C20.03 26.98, 27.61 16.96, 37.8 7.14 M16.2 38.58 C24.25 28.88, 31.07 23.08, 40.07 8.57 M16.23 38.15 C24.88 26.94, 34.31 17.22, 41.11 8.61 M18.39 42.19 C23.8 32.33, 30.94 25.29, 45.07 12.29 M19.3 41.27 C29.22 30.53, 38.97 19.72, 43.18 11.92 M25.56 40.84 C29.25 32.01, 38.09 26.31, 43.62 17.61 M22.85 42.43 C30.15 34.1, 36.47 27.5, 45.07 16.56 M28.5 38.98 C35.98 32.54, 41.97 27.9, 47.23 24.36 M28.91 40.89 C33.58 35.74, 38.09 29.79, 45.27 22.8 M36.34 37.23 C39.28 35.27, 44.91 29.05, 46.69 25.08 M37.42 38.91 C40.2 34.39, 43.7 32.15, 47.73 26.91" stroke="#15aabf" stroke-width="0.5" fill="none"></path><path d="M16.68 0.5 C21.1 -0.99, 28.04 0.47, 32.63 2.3 C37.22 4.13, 41.94 7.64, 44.22 11.5 C46.49 15.35, 47.18 21.02, 46.28 25.43 C45.38 29.84, 42.63 35.25, 38.81 37.97 C34.99 40.7, 28.65 42.11, 23.37 41.78 C18.08 41.46, 11.11 38.92, 7.1 36.03 C3.09 33.13, -0.19 28.91, -0.67 24.43 C-1.15 19.94, 0.82 13.13, 4.21 9.09 C7.61 5.06, 16.72 1.73, 19.71 0.19 C22.71 -1.36, 22.06 -0.43, 22.17 -0.18 M17.72 1.12 C22.05 -0.14, 27.19 0.83, 31.84 2.45 C36.49 4.06, 42.97 6.96, 45.6 10.81 C48.23 14.67, 48.89 21.12, 47.6 25.56 C46.31 30, 41.83 34.42, 37.87 37.46 C33.91 40.5, 28.81 44.05, 23.84 43.78 C18.87 43.51, 11.8 39.16, 8.05 35.85 C4.3 32.53, 2.15 28.41, 1.33 23.87 C0.52 19.34, 0.61 12.69, 3.16 8.63 C5.71 4.57, 14.34 0.63, 16.62 -0.48 C18.89 -1.59, 16.74 1.45, 16.81 1.99" stroke="#000000" stroke-width="1" fill="none"></path></g><g stroke-linecap="round" transform="translate(649.8821659144205 743.6811595460533) rotate(0 23.64279050120365 21.216110180126748)"><path d="M2.4 11.36 C2.4 11.36, 2.4 11.36, 2.4 11.36 M2.4 11.36 C2.4 11.36, 2.4 11.36, 2.4 11.36 M2.38 18.36 C6.6 11.58, 11.41 7.63, 14.34 2.53 M1.42 19.02 C6.23 13.09, 11.71 8.18, 15.31 4.12 M-1.52 28.26 C6.33 18.85, 11.76 11.52, 22.86 3.53 M-0.79 25.9 C6.58 18.49, 13.03 10.38, 21.83 1.84 M1.55 28.2 C9.19 19.84, 16.83 14.68, 26.25 2.24 M2.53 28.59 C11.27 19.84, 19.49 10.12, 26.45 1.32 M3.9 31.7 C13.22 23.41, 21.11 18.04, 33.1 1.13 M5.92 31.59 C15.2 22.37, 24.15 10.51, 32.26 2.04 M9.85 34.86 C15.42 27.05, 22.88 20.47, 35.75 4.88 M7.83 34.16 C15.65 26.73, 23.8 18.19, 34.65 4.42 M11.15 40.27 C17.65 28.36, 28.55 19.54, 40.14 7.3 M10.15 39.26 C17.61 30, 24.08 23.28, 39.15 5.55 M13.53 39.65 C25.99 28.75, 37.2 14.34, 39.95 8.71 M14.81 41.04 C23.47 28.44, 34.85 17.17, 41.64 9.59 M19.41 41.97 C23.99 34.71, 32.31 25.18, 43.75 9.77 M18.55 41.95 C28.32 29.99, 39.1 19.26, 45.57 10.54 M22.49 44.56 C29.19 39.3, 32.44 29.55, 47.06 14.18 M21.56 42.79 C30.15 34.48, 38.82 24.19, 46.11 15.81 M27.02 43.52 C29.87 38.07, 35.05 34.75, 47.54 22.47 M26.83 46.02 C33.47 37.68, 39.01 29.04, 47.34 21.01 M34.36 40.75 C36.82 35.73, 42.84 32.36, 47.69 24.19 M34.77 41.78 C38.33 36.87, 42.53 31.89, 49.07 25.06" stroke="#15aabf" stroke-width="0.5" fill="none"></path><path d="M14.03 2.27 C18.48 0.24, 25.85 -1.09, 30.86 0.26 C35.86 1.61, 41.45 6.32, 44.07 10.38 C46.68 14.43, 47.35 20.17, 46.56 24.58 C45.77 28.99, 43.06 33.72, 39.33 36.85 C35.61 39.99, 29.08 43.12, 24.23 43.39 C19.37 43.65, 14.23 41.23, 10.19 38.43 C6.15 35.64, 1.23 31.18, -0.01 26.61 C-1.26 22.04, -0.19 15.35, 2.72 11 C5.63 6.64, 14.41 2.26, 17.44 0.49 C20.47 -1.27, 20.61 0.12, 20.89 0.43 M20.87 0.79 C25.6 0.07, 33.66 1.7, 38.02 4.52 C42.38 7.34, 46.11 13.25, 47.02 17.73 C47.93 22.2, 46.06 27.72, 43.48 31.37 C40.9 35.01, 36.11 37.68, 31.55 39.62 C26.98 41.55, 20.56 44.18, 16.1 42.96 C11.64 41.73, 7.46 36.28, 4.79 32.27 C2.11 28.27, -0.3 23.34, 0.06 18.92 C0.42 14.5, 3.32 9.08, 6.94 5.76 C10.56 2.43, 19.11 -0.31, 21.79 -1.04 C24.47 -1.78, 22.81 0.59, 23.01 1.35" stroke="#000000" stroke-width="1" fill="none"></path></g><g stroke-linecap="round"><g transform="translate(499.1028064834837 558.0597355990965) rotate(0 73.60676929804993 -14.950070999676655)"><path d="M0 0 C58.17 -11.81, 116.34 -23.63, 147.21 -29.9" stroke="#0b7285" stroke-width="1.5" fill="none" stroke-dasharray="8 9"></path></g><g transform="translate(499.1028064834837 558.0597355990965) rotate(0 73.60676929804993 -14.950070999676655)"><path d="M147.21 -29.9 L135.15 -20.98 L132.63 -33.41 L147.21 -29.9" stroke="none" stroke-width="0" fill="#0b7285" fill-rule="evenodd"></path><path d="M147.21 -29.9 C142.45 -26.38, 137.68 -22.85, 135.15 -20.98 M135.15 -20.98 C134.4 -24.7, 133.64 -28.43, 132.63 -33.41 M132.63 -33.41 C137.78 -32.17, 142.93 -30.93, 147.21 -29.9 M147.21 -29.9 C147.21 -29.9, 147.21 -29.9, 147.21 -29.9" stroke="#0b7285" stroke-width="1.5" fill="none"></path></g></g><mask></mask><g stroke-linecap="round"><g transform="translate(500.66436196286037 623.3725657577256) rotate(0 72.19035984635264 5.707253739670932)"><path d="M0 0 C48.54 3.84, 97.09 7.68, 144.38 11.41" stroke="#0b7285" stroke-width="1.5" fill="none" stroke-dasharray="8 9"></path></g><g transform="translate(500.66436196286037 623.3725657577256) rotate(0 72.19035984635264 5.707253739670932)"><path d="M144.38 11.41 L130.33 16.66 L131.33 4.02 L144.38 11.41" stroke="none" stroke-width="0" fill="#0b7285" fill-rule="evenodd"></path><path d="M144.38 11.41 C139.66 13.18, 134.93 14.94, 130.33 16.66 M130.33 16.66 C130.62 13.04, 130.9 9.42, 131.33 4.02 M131.33 4.02 C135.33 6.29, 139.33 8.56, 144.38 11.41 M144.38 11.41 C144.38 11.41, 144.38 11.41, 144.38 11.41" stroke="#0b7285" stroke-width="1.5" fill="none"></path></g></g><mask></mask><g stroke-linecap="round"><g transform="translate(503.0483416569562 698.8688265120845) rotate(0 73.82339210713985 28.832415897705914)"><path d="M0 0 C48.22 18.83, 96.43 37.66, 147.65 57.66" stroke="#0b7285" stroke-width="1.5" fill="none" stroke-dasharray="8 9"></path></g><g transform="translate(503.0483416569562 698.8688265120845) rotate(0 73.82339210713985 28.832415897705914)"><path d="M147.65 57.66 L132.68 58.62 L137.29 46.81 L147.65 57.66" stroke="none" stroke-width="0" fill="#0b7285" fill-rule="evenodd"></path><path d="M147.65 57.66 C142.76 57.98, 137.87 58.29, 132.68 58.62 M132.68 58.62 C134.36 54.31, 136.05 50, 137.29 46.81 M137.29 46.81 C140.46 50.13, 143.62 53.45, 147.65 57.66 M147.65 57.66 C147.65 57.66, 147.65 57.66, 147.65 57.66" stroke="#0b7285" stroke-width="1.5" fill="none"></path></g></g><mask></mask><g stroke-linecap="round"><g transform="translate(728.833584971755 469.6864500306888) rotate(0 66.0855577599138 0.37192117835525096)"><path d="M0 0 C38.77 0.22, 77.55 0.44, 132.17 0.74 M0 0 C30.59 0.17, 61.18 0.34, 132.17 0.74" stroke="#000000" stroke-width="1" fill="none"></path></g><g transform="translate(728.833584971755 469.6864500306888) rotate(0 66.0855577599138 0.37192117835525096)"><path d="M132.17 0.74 L118.54 7.01 L118.61 -5.67 L132.17 0.74" stroke="none" stroke-width="0" fill="#000000" fill-rule="evenodd"></path><path d="M132.17 0.74 C128.17 2.58, 124.17 4.42, 118.54 7.01 M132.17 0.74 C129.02 2.19, 125.86 3.64, 118.54 7.01 M118.54 7.01 C118.56 4.03, 118.57 1.05, 118.61 -5.67 M118.54 7.01 C118.56 3.84, 118.58 0.67, 118.61 -5.67 M118.61 -5.67 C122.18 -3.98, 125.75 -2.3, 132.17 0.74 M118.61 -5.67 C122.56 -3.81, 126.5 -1.94, 132.17 0.74 M132.17 0.74 C132.17 0.74, 132.17 0.74, 132.17 0.74 M132.17 0.74 C132.17 0.74, 132.17 0.74, 132.17 0.74" stroke="#000000" stroke-width="1" fill="none"></path></g></g><mask></mask><g stroke-linecap="round"><g transform="translate(858.2971584557483 503.59497218521574) rotate(0 -65.10017986548866 -0.4973102609187663)"><path d="M0 0 C-49.4 -0.38, -98.79 -0.75, -130.2 -0.99 M0 0 C-34.63 -0.26, -69.27 -0.53, -130.2 -0.99" stroke="#000000" stroke-width="1" fill="none"></path></g><g transform="translate(858.2971584557483 503.59497218521574) rotate(0 -65.10017986548866 -0.4973102609187663)"><path d="M-130.2 -0.99 L-116.56 -7.23 L-116.65 5.45 L-130.2 -0.99" stroke="none" stroke-width="0" fill="#000000" fill-rule="evenodd"></path><path d="M-130.2 -0.99 C-125.02 -3.36, -119.85 -5.73, -116.56 -7.23 M-130.2 -0.99 C-126.57 -2.65, -122.94 -4.31, -116.56 -7.23 M-116.56 -7.23 C-116.59 -2.42, -116.63 2.39, -116.65 5.45 M-116.56 -7.23 C-116.59 -2.54, -116.63 2.15, -116.65 5.45 M-116.65 5.45 C-121.96 2.92, -127.27 0.4, -130.2 -0.99 M-116.65 5.45 C-121.79 3, -126.93 0.56, -130.2 -0.99 M-130.2 -0.99 C-130.2 -0.99, -130.2 -0.99, -130.2 -0.99 M-130.2 -0.99 C-130.2 -0.99, -130.2 -0.99, -130.2 -0.99" stroke="#000000" stroke-width="1" fill="none"></path></g></g><mask></mask><g stroke-linecap="round" transform="translate(950.2577334232869 587.1461207391287) rotate(0 73.04107830110945 68.50319925926897)"><path d="M7.86 8.16 C7.86 8.16, 7.86 8.16, 7.86 8.16 M7.86 8.16 C7.86 8.16, 7.86 8.16, 7.86 8.16 M3.66 19.09 C6.78 15.5, 9.9 11.92, 18.1 2.48 M3.66 19.09 C7.14 15.09, 10.62 11.09, 18.1 2.48 M2.75 26.24 C8.58 19.53, 14.41 12.82, 25.05 0.58 M2.75 26.24 C10.62 17.18, 18.49 8.13, 25.05 0.58 M2.48 32.64 C11.17 22.64, 19.86 12.65, 30.7 0.18 M2.48 32.64 C8.41 25.82, 14.33 19.01, 30.7 0.18 M2.88 38.28 C10.08 29.99, 17.29 21.7, 34.37 2.05 M2.88 38.28 C12.98 26.66, 23.08 15.04, 34.37 2.05 M2.62 44.68 C13.43 32.24, 24.25 19.8, 39.36 2.41 M2.62 44.68 C13.65 31.98, 24.69 19.29, 39.36 2.41 M2.36 51.07 C15.79 35.62, 29.23 20.16, 45 2.02 M2.36 51.07 C12.02 39.96, 21.68 28.85, 45 2.02 M2.75 56.72 C20.97 35.75, 39.2 14.79, 49.99 2.38 M2.75 56.72 C21.46 35.19, 40.17 13.67, 49.99 2.38 M2.49 63.11 C14.67 49.11, 26.85 35.1, 55.63 1.98 M2.49 63.11 C17.42 45.94, 32.35 28.76, 55.63 1.98 M2.23 69.51 C22.06 46.7, 41.89 23.89, 60.62 2.34 M2.23 69.51 C18.84 50.41, 35.45 31.3, 60.62 2.34 M2.62 75.16 C23.42 51.23, 44.23 27.3, 66.26 1.95 M2.62 75.16 C21.56 53.37, 40.51 31.58, 66.26 1.95 M2.36 81.55 C20.27 60.95, 38.18 40.35, 71.25 2.31 M2.36 81.55 C19.97 61.3, 37.58 41.04, 71.25 2.31 M2.1 87.95 C17.73 69.97, 33.37 51.98, 76.23 2.67 M2.1 87.95 C23.86 62.92, 45.61 37.89, 76.23 2.67 M2.49 93.59 C34.1 57.24, 65.7 20.88, 81.88 2.27 M2.49 93.59 C26.55 65.93, 50.6 38.26, 81.88 2.27 M2.23 99.99 C30.23 67.79, 58.22 35.59, 86.86 2.63 M2.23 99.99 C26.64 71.91, 51.05 43.83, 86.86 2.63 M1.97 106.39 C33.84 69.73, 65.7 33.07, 92.51 2.24 M1.97 106.39 C31.23 72.74, 60.48 39.08, 92.51 2.24 M1.05 113.54 C37.98 71.06, 74.91 28.58, 97.49 2.6 M1.05 113.54 C30.52 79.64, 59.99 45.74, 97.49 2.6 M2.76 117.68 C29.5 86.91, 56.24 56.15, 103.14 2.21 M2.76 117.68 C34.45 81.22, 66.14 44.77, 103.14 2.21 M4.47 121.81 C36.67 84.76, 68.88 47.71, 108.12 2.57 M4.47 121.81 C42.94 77.55, 81.41 33.3, 108.12 2.57 M6.17 125.94 C31.27 97.08, 56.36 68.22, 113.77 2.17 M6.17 125.94 C47.43 78.48, 88.69 31.02, 113.77 2.17 M8.54 129.32 C42.07 90.74, 75.61 52.16, 118.76 2.53 M8.54 129.32 C43.2 89.45, 77.86 49.58, 118.76 2.53 M11.56 131.95 C44.2 94.4, 76.84 56.85, 123.74 2.89 M11.56 131.95 C48.84 89.05, 86.13 46.16, 123.74 2.89 M14.57 134.57 C37.62 108.06, 60.66 81.56, 129.39 2.5 M14.57 134.57 C56.83 85.96, 99.09 37.35, 129.39 2.5 M18.91 135.69 C44.61 106.12, 70.31 76.55, 133.06 4.37 M18.91 135.69 C49.89 100.04, 80.87 64.4, 133.06 4.37 M23.24 136.8 C55.28 99.94, 87.31 63.09, 136.08 6.99 M23.24 136.8 C64.7 89.1, 106.17 41.39, 136.08 6.99 M26.91 138.67 C68.46 90.87, 110.01 43.07, 139.75 8.86 M26.91 138.67 C50.92 111.05, 74.93 83.43, 139.75 8.86 M31.9 139.03 C63.1 103.14, 94.29 67.25, 141.46 12.99 M31.9 139.03 C70.41 94.73, 108.91 50.44, 141.46 12.99 M37.54 138.64 C79.99 89.81, 122.43 40.98, 143.82 16.37 M37.54 138.64 C66.42 105.41, 95.3 72.19, 143.82 16.37 M42.53 139 C82.01 93.58, 121.49 48.17, 146.19 19.75 M42.53 139 C80.04 95.85, 117.55 52.7, 146.19 19.75 M48.17 138.6 C82.09 99.58, 116.02 60.56, 146.58 25.39 M48.17 138.6 C74.41 108.41, 100.65 78.23, 146.58 25.39 M53.16 138.96 C90.13 96.44, 127.09 53.91, 146.32 31.79 M53.16 138.96 C75.85 112.85, 98.55 86.75, 146.32 31.79 M58.8 138.57 C91.72 100.7, 124.64 62.83, 146.06 38.19 M58.8 138.57 C86.65 106.53, 114.49 74.5, 146.06 38.19 M63.79 138.93 C80.52 119.68, 97.26 100.43, 145.8 44.59 M63.79 138.93 C83.87 115.83, 103.95 92.73, 145.8 44.59 M69.43 138.53 C86.08 119.38, 102.73 100.23, 146.19 50.23 M69.43 138.53 C88.91 116.12, 108.4 93.71, 146.19 50.23 M74.42 138.89 C97.37 112.49, 120.31 86.1, 145.93 56.63 M74.42 138.89 C89.92 121.06, 105.42 103.23, 145.93 56.63 M79.41 139.25 C101.3 114.07, 123.19 88.89, 145.67 63.03 M79.41 139.25 C105.81 108.88, 132.21 78.51, 145.67 63.03 M85.05 138.86 C104.12 116.92, 123.18 94.99, 146.06 68.67 M85.05 138.86 C98.09 123.86, 111.13 108.86, 146.06 68.67 M90.04 139.22 C108.51 117.97, 126.98 96.72, 145.8 75.07 M90.04 139.22 C111.45 114.59, 132.86 89.95, 145.8 75.07 M95.68 138.82 C115.17 116.4, 134.67 93.97, 145.54 81.47 M95.68 138.82 C110.3 122.01, 124.92 105.19, 145.54 81.47 M100.67 139.18 C117.87 119.39, 135.08 99.59, 145.93 87.11 M100.67 139.18 C116.26 121.25, 131.85 103.31, 145.93 87.11 M106.31 138.79 C114.78 129.04, 123.25 119.3, 145.67 93.51 M106.31 138.79 C118.74 124.49, 131.17 110.19, 145.67 93.51 M111.3 139.15 C124.41 124.07, 137.52 108.99, 145.41 99.9 M111.3 139.15 C122.11 126.71, 132.92 114.27, 145.41 99.9 M116.28 139.51 C124.87 129.63, 133.47 119.74, 145.81 105.55 M116.28 139.51 C126.47 127.79, 136.66 116.06, 145.81 105.55 M123.24 137.6 C132.12 127.39, 141 117.18, 145.54 111.94 M123.24 137.6 C128.63 131.4, 134.03 125.2, 145.54 111.94 M129.54 136.46 C135.14 130.01, 140.74 123.57, 144.63 119.1 M129.54 136.46 C133.28 132.15, 137.03 127.84, 144.63 119.1" stroke="#15aabf" stroke-width="0.5" fill="none"></path><path d="M32 0 M32 0 C50.26 0, 68.52 0, 114.08 0 M32 0 C61.75 0, 91.5 0, 114.08 0 M114.08 0 C135.42 0, 146.08 10.67, 146.08 32 M114.08 0 C135.42 0, 146.08 10.67, 146.08 32 M146.08 32 C146.08 47.47, 146.08 62.94, 146.08 105.01 M146.08 32 C146.08 47.32, 146.08 62.65, 146.08 105.01 M146.08 105.01 C146.08 126.34, 135.42 137.01, 114.08 137.01 M146.08 105.01 C146.08 126.34, 135.42 137.01, 114.08 137.01 M114.08 137.01 C96.31 137.01, 78.55 137.01, 32 137.01 M114.08 137.01 C84.32 137.01, 54.55 137.01, 32 137.01 M32 137.01 C10.67 137.01, 0 126.34, 0 105.01 M32 137.01 C10.67 137.01, 0 126.34, 0 105.01 M0 105.01 C0 82.75, 0 60.5, 0 32 M0 105.01 C0 79.89, 0 54.78, 0 32 M0 32 C0 10.67, 10.67 0, 32 0 M0 32 C0 10.67, 10.67 0, 32 0" stroke="#000000" stroke-width="1" fill="none"></path></g><g transform="translate(982.1688526179512 630.6493199983977) rotate(0 41.12995910644531 25)"><text x="41.12995910644531" y="0" font-family="Virgil, Segoe UI Emoji" font-size="20px" fill="#000000" text-anchor="middle" style="white-space: pre;" direction="ltr" dominant-baseline="text-before-edge">MicroApp</text><text x="41.12995910644531" y="25" font-family="Virgil, Segoe UI Emoji" font-size="20px" fill="#000000" text-anchor="middle" style="white-space: pre;" direction="ltr" dominant-baseline="text-before-edge">Portal</text></g><g transform="translate(1001.7208527674106 421.47641058259114) rotate(0 27.049972534179688 12)"><text x="27.049972534179688" y="0" font-family="Virgil, Segoe UI Emoji" font-size="20px" fill="#000000" text-anchor="middle" style="white-space: pre;" direction="ltr" dominant-baseline="text-before-edge">Client</text></g><g stroke-linecap="round"><g transform="translate(977.6048834593366 727.2021937701452) rotate(0 -0.2103830365945214 47.9911617537947)"><path d="M0 0 C-0.07 16, -0.35 79.99, -0.42 95.98 M0 0 C-0.07 16, -0.35 79.99, -0.42 95.98" stroke="#000000" stroke-width="1" fill="none"></path></g><g transform="translate(977.6048834593366 727.2021937701452) rotate(0 -0.2103830365945214 47.9911617537947)"><path d="M-0.42 95.98 L-6.7 82.36 L5.98 82.42 L-0.42 95.98" stroke="none" stroke-width="0" fill="#000000" fill-rule="evenodd"></path><path d="M-0.42 95.98 C-2.41 91.66, -4.4 87.34, -6.7 82.36 M-0.42 95.98 C-2.18 92.17, -3.94 88.35, -6.7 82.36 M-6.7 82.36 C-2.27 82.38, 2.17 82.4, 5.98 82.42 M-6.7 82.36 C-2.44 82.38, 1.82 82.4, 5.98 82.42 M5.98 82.42 C3.65 87.36, 1.31 92.3, -0.42 95.98 M5.98 82.42 C3.64 87.38, 1.29 92.35, -0.42 95.98 M-0.42 95.98 C-0.42 95.98, -0.42 95.98, -0.42 95.98 M-0.42 95.98 C-0.42 95.98, -0.42 95.98, -0.42 95.98" stroke="#000000" stroke-width="1" fill="none"></path></g></g><mask></mask><g stroke-linecap="round"><g transform="translate(995.4303077345735 725.6796460593357) rotate(0 -0.1206207525242462 47.9911617537947)"><path d="M0 0 C-0.04 16, -0.2 79.99, -0.24 95.98 M0 0 C-0.04 16, -0.2 79.99, -0.24 95.98" stroke="#000000" stroke-width="1" fill="none"></path></g><g transform="translate(995.4303077345735 725.6796460593357) rotate(0 -0.1206207525242462 47.9911617537947)"><path d="M0 0 L6.31 13.61 L-6.37 13.58 L0 0" stroke="none" stroke-width="0" fill="#000000" fill-rule="evenodd"></path><path d="M0 0 C2.32 5, 4.63 10, 6.31 13.61 M0 0 C1.83 3.95, 3.66 7.89, 6.31 13.61 M6.31 13.61 C1.7 13.6, -2.9 13.59, -6.37 13.58 M6.31 13.61 C2.42 13.6, -1.47 13.59, -6.37 13.58 M-6.37 13.58 C-5.04 10.73, -3.7 7.88, 0 0 M-6.37 13.58 C-4.71 10.03, -3.05 6.49, 0 0 M0 0 C0 0, 0 0, 0 0 M0 0 C0 0, 0 0, 0 0" stroke="#000000" stroke-width="1" fill="none"></path></g></g><mask></mask><g stroke-linecap="round"><g transform="translate(1061.8293487284827 755.3864980108399) rotate(0 0.36985065611577284 33.99746008692796)"><path d="M0 0 C0.12 11.33, 0.62 56.66, 0.74 67.99 M0 0 C0.12 11.33, 0.62 56.66, 0.74 67.99" stroke="#000000" stroke-width="1" fill="none"></path></g><g transform="translate(1061.8293487284827 755.3864980108399) rotate(0 0.36985065611577284 33.99746008692796)"><path d="M0.74 67.99 L-5.75 54.47 L6.93 54.33 L0.74 67.99" stroke="none" stroke-width="0" fill="#000000" fill-rule="evenodd"></path><path d="M0.74 67.99 C-1.45 63.42, -3.64 58.85, -5.75 54.47 M0.74 67.99 C-1.62 63.07, -3.98 58.15, -5.75 54.47 M-5.75 54.47 C-1.38 54.42, 2.98 54.38, 6.93 54.33 M-5.75 54.47 C-1.08 54.42, 3.59 54.37, 6.93 54.33 M6.93 54.33 C5.23 58.1, 3.52 61.86, 0.74 67.99 M6.93 54.33 C4.66 59.34, 2.39 64.34, 0.74 67.99 M0.74 67.99 C0.74 67.99, 0.74 67.99, 0.74 67.99 M0.74 67.99 C0.74 67.99, 0.74 67.99, 0.74 67.99" stroke="#000000" stroke-width="1" fill="none"></path></g></g><mask></mask><g stroke-linecap="round"><g transform="translate(1080.88905317733 757.410456170772) rotate(0 0.25644956330040714 32.99234964325092)"><path d="M0 0 C0.09 11, 0.43 54.99, 0.51 65.98 M0 0 C0.09 11, 0.43 54.99, 0.51 65.98" stroke="#000000" stroke-width="1" fill="none"></path></g><g transform="translate(1080.88905317733 757.410456170772) rotate(0 0.25644956330040714 32.99234964325092)"><path d="M0 0 L6.44 13.54 L-6.23 13.64 L0 0" stroke="none" stroke-width="0" fill="#000000" fill-rule="evenodd"></path><path d="M0 0 C1.59 3.33, 3.17 6.66, 6.44 13.54 M0 0 C2.06 4.32, 4.11 8.64, 6.44 13.54 M6.44 13.54 C1.39 13.58, -3.66 13.62, -6.23 13.64 M6.44 13.54 C3.21 13.57, -0.03 13.6, -6.23 13.64 M-6.23 13.64 C-4.37 9.57, -2.51 5.5, 0 0 M-6.23 13.64 C-4.31 9.44, -2.4 5.24, 0 0 M0 0 C0 0, 0 0, 0 0 M0 0 C0 0, 0 0, 0 0" stroke="#000000" stroke-width="1" fill="none"></path></g></g><mask></mask><g stroke-linecap="round" transform="translate(1060.810724046049 685.1661396792297) rotate(0 12.36125577542748 13.57242530778558)"><path d="M16.25 3.5 L23.91 14 L16.25 23.64 L13 26.27 L3.25 17.5 L0.81 14 L11.68 1.53 L13 0.88 L16.25 3.5" stroke="none" stroke-width="0" fill="#7950f2"></path><path d="M16.25 3.5 M16.25 3.5 C17.55 5.24, 18.85 6.99, 21.47 10.5 M16.25 3.5 C18.12 6.01, 19.99 8.51, 21.47 10.5 M21.47 10.5 C24.72 14, 24.72 14, 21.47 17.5 M21.47 10.5 C24.72 14, 24.72 14, 21.47 17.5 M21.47 17.5 C19.98 19.25, 18.49 21.01, 16.25 23.64 M21.47 17.5 C19.51 19.81, 17.55 22.11, 16.25 23.64 M16.25 23.64 C13 27.14, 13 27.14, 9.75 23.64 M16.25 23.64 C13 27.14, 13 27.14, 9.75 23.64 M9.75 23.64 C8.08 22.06, 6.41 20.48, 3.25 17.5 M9.75 23.64 C7.77 21.78, 5.8 19.91, 3.25 17.5 M3.25 17.5 C0 14, 0 14, 3.25 10.5 M3.25 17.5 C0 14, 0 14, 3.25 10.5 M3.25 10.5 C4.69 8.95, 6.14 7.39, 9.75 3.5 M3.25 10.5 C5.85 7.7, 8.45 4.9, 9.75 3.5 M9.75 3.5 C13 0, 13 0, 16.25 3.5 M9.75 3.5 C13 0, 13 0, 16.25 3.5" stroke="#000000" stroke-width="1" fill="none"></path></g><g stroke-linecap="round"><g transform="translate(1084.8692674222648 700.5060940588121) rotate(0 41.49343182405528 36.06034051916731)"><path d="M0 0 C26.78 0.49, 53.55 0.98, 82.81 1.52 M0 0 C25.15 0.46, 50.3 0.92, 82.81 1.52 M82.81 1.52 C82.87 25.76, 82.93 50, 82.99 72.12 M82.81 1.52 C82.85 18.13, 82.89 34.75, 82.99 72.12" stroke="#c92a2a" stroke-width="1" fill="none"></path></g><g transform="translate(1084.8692674222648 700.5060940588121) rotate(0 41.49343182405528 36.06034051916731)"><path d="M90.99 72.12 C90.99 72.58, 90.95 73.05, 90.87 73.51 C90.78 73.97, 90.66 74.42, 90.5 74.86 C90.35 75.29, 90.15 75.72, 89.92 76.12 C89.68 76.52, 89.41 76.91, 89.12 77.26 C88.82 77.62, 88.48 77.95, 88.13 78.25 C87.77 78.55, 87.39 78.82, 86.99 79.05 C86.59 79.28, 86.16 79.48, 85.72 79.64 C85.29 79.8, 84.83 79.92, 84.38 80 C83.92 80.08, 83.45 80.12, 82.99 80.12 C82.52 80.12, 82.05 80.08, 81.6 80 C81.14 79.92, 80.69 79.8, 80.25 79.64 C79.82 79.48, 79.39 79.28, 78.99 79.05 C78.59 78.82, 78.2 78.55, 77.84 78.25 C77.49 77.95, 77.16 77.62, 76.86 77.26 C76.56 76.91, 76.29 76.52, 76.06 76.12 C75.83 75.72, 75.63 75.29, 75.47 74.86 C75.31 74.42, 75.19 73.97, 75.11 73.51 C75.03 73.05, 74.99 72.58, 74.99 72.12 C74.99 71.66, 75.03 71.19, 75.11 70.73 C75.19 70.28, 75.31 69.82, 75.47 69.38 C75.63 68.95, 75.83 68.52, 76.06 68.12 C76.29 67.72, 76.56 67.33, 76.86 66.98 C77.16 66.62, 77.49 66.29, 77.84 65.99 C78.2 65.69, 78.59 65.42, 78.99 65.19 C79.39 64.96, 79.82 64.76, 80.25 64.6 C80.69 64.44, 81.14 64.32, 81.6 64.24 C82.05 64.16, 82.52 64.12, 82.99 64.12 C83.45 64.12, 83.92 64.16, 84.38 64.24 C84.83 64.32, 85.29 64.44, 85.72 64.6 C86.16 64.76, 86.59 64.96, 86.99 65.19 C87.39 65.42, 87.77 65.69, 88.13 65.99 C88.48 66.29, 88.82 66.62, 89.12 66.98 C89.41 67.33, 89.68 67.72, 89.92 68.12 C90.15 68.52, 90.35 68.95, 90.5 69.38 C90.66 69.82, 90.78 70.28, 90.87 70.73 C90.95 71.19, 90.97 71.89, 90.99 72.12 C91.01 72.35, 91.01 71.89, 90.99 72.12" stroke="none" stroke-width="0" fill="#c92a2a"></path></g></g><mask></mask><g transform="translate(1140.2836769405212 781.2030450584762) rotate(0 24.215980529785156 20)"><text x="24.215980529785156" y="0" font-family="Virgil, Segoe UI Emoji" font-size="16px" fill="#000000" text-anchor="middle" style="white-space: pre;" direction="ltr" dominant-baseline="text-before-edge">window</text><text x="24.215980529785156" y="20" font-family="Virgil, Segoe UI Emoji" font-size="16px" fill="#000000" text-anchor="middle" style="white-space: pre;" direction="ltr" dominant-baseline="text-before-edge">object</text></g><g stroke-linecap="round" transform="translate(738.5159929855954 14.558283294206944) rotate(0 291.8414872988377 191.77690428993577)"><path d="M0 0 C164.69 0, 329.39 0, 583.68 0 M583.68 0 C583.68 137.99, 583.68 275.98, 583.68 383.55 M583.68 383.55 C418.81 383.55, 253.95 383.55, 0 383.55 M0 383.55 C0 238.92, 0 94.29, 0 0" stroke="#c92a2a" stroke-width="1.5" fill="none" stroke-dasharray="8 9"></path></g><g stroke-linecap="round"><g transform="translate(976.5649174563498 551.9284926257369) rotate(0 -48.392894521623475 -74.63772485866298)"><path d="M0 0 C-38.61 0.07, -77.23 0.15, -96.63 0.18 M0 0 C-28.38 0.05, -56.77 0.11, -96.63 0.18 M-96.63 0.18 C-96.67 -40.44, -96.71 -81.06, -96.79 -149.46 M-96.63 0.18 C-96.67 -42.31, -96.72 -84.81, -96.79 -149.46" stroke="#c92a2a" stroke-width="1" fill="none"></path></g><g transform="translate(976.5649174563498 551.9284926257369) rotate(0 -48.392894521623475 -74.63772485866298)"><path d="M-88.79 -149.46 C-88.79 -149, -88.83 -148.53, -88.91 -148.07 C-88.99 -147.61, -89.11 -147.16, -89.27 -146.72 C-89.43 -146.29, -89.63 -145.86, -89.86 -145.46 C-90.09 -145.06, -90.36 -144.67, -90.66 -144.32 C-90.96 -143.96, -91.29 -143.63, -91.64 -143.33 C-92 -143.03, -92.38 -142.76, -92.79 -142.53 C-93.19 -142.3, -93.61 -142.1, -94.05 -141.94 C-94.48 -141.78, -94.94 -141.66, -95.4 -141.58 C-95.85 -141.5, -96.32 -141.46, -96.79 -141.46 C-97.25 -141.46, -97.72 -141.5, -98.17 -141.58 C-98.63 -141.66, -99.09 -141.78, -99.52 -141.94 C-99.96 -142.1, -100.38 -142.3, -100.79 -142.53 C-101.19 -142.76, -101.57 -143.03, -101.93 -143.33 C-102.28 -143.63, -102.62 -143.96, -102.91 -144.32 C-103.21 -144.67, -103.48 -145.06, -103.71 -145.46 C-103.95 -145.86, -104.14 -146.29, -104.3 -146.72 C-104.46 -147.16, -104.58 -147.61, -104.66 -148.07 C-104.74 -148.53, -104.79 -149, -104.79 -149.46 C-104.79 -149.92, -104.74 -150.39, -104.66 -150.85 C-104.58 -151.3, -104.46 -151.76, -104.3 -152.19 C-104.14 -152.63, -103.95 -153.06, -103.71 -153.46 C-103.48 -153.86, -103.21 -154.25, -102.91 -154.6 C-102.62 -154.96, -102.28 -155.29, -101.93 -155.59 C-101.57 -155.88, -101.19 -156.16, -100.79 -156.39 C-100.38 -156.62, -99.96 -156.82, -99.52 -156.98 C-99.09 -157.13, -98.63 -157.26, -98.17 -157.34 C-97.72 -157.42, -97.25 -157.46, -96.79 -157.46 C-96.32 -157.46, -95.85 -157.42, -95.4 -157.34 C-94.94 -157.26, -94.48 -157.13, -94.05 -156.98 C-93.61 -156.82, -93.19 -156.62, -92.79 -156.39 C-92.38 -156.16, -92 -155.88, -91.64 -155.59 C-91.29 -155.29, -90.96 -154.96, -90.66 -154.6 C-90.36 -154.25, -90.09 -153.86, -89.86 -153.46 C-89.63 -153.06, -89.43 -152.63, -89.27 -152.19 C-89.11 -151.76, -88.99 -151.3, -88.91 -150.85 C-88.83 -150.39, -88.81 -149.69, -88.79 -149.46 C-88.77 -149.23, -88.77 -149.69, -88.79 -149.46" stroke="none" stroke-width="0" fill="#c92a2a"></path></g></g><mask></mask><g stroke-linecap="round" transform="translate(1330.9696597735565 460.59607919449786) rotate(0 52.30522169475012 194.8197071700605)"><path d="M0.15 -1.41 C35.86 0.81, 70.97 -0.23, 104.96 -0.61 M-0.21 0.65 C23.81 0.28, 49.73 -0.74, 104.26 0.49 M105.32 -0.4 C105.33 141.81, 104.72 284.07, 105.26 389.81 M104.42 0.39 C102.68 139.43, 102.46 278.74, 104.05 389.54 M105.26 388 C77.84 388.61, 50.94 389.24, -1.19 389.02 M103.91 389.91 C65.93 390.52, 29.38 390.27, 0.95 390.55 M-0.32 388.56 C0.83 290.94, 1.73 192.54, 1.03 0.39 M-0.03 390.22 C0.21 252.73, 0.14 117.3, -0.2 0.17" stroke="#000000" stroke-width="1" fill="none"></path></g><g transform="translate(1348.7708989243613 645.4157863645582) rotate(0 34.50398254394531 10)"><text x="34.50398254394531" y="0" font-family="Virgil, Segoe UI Emoji" font-size="16px" fill="#000000" text-anchor="middle" style="white-space: pre;" direction="ltr" dominant-baseline="text-before-edge">Gateway</text></g><g transform="translate(1366.1430985098757 426.15166235021866) rotate(0 18.61998748779297 12)"><text x="18.61998748779297" y="0" font-family="Virgil, Segoe UI Emoji" font-size="20px" fill="#000000" text-anchor="middle" style="white-space: pre;" direction="ltr" dominant-baseline="text-before-edge">API</text></g><g stroke-linecap="round"><g transform="translate(1203.218041758956 471.8296778252152) rotate(0 60.144187369612496 0.22964662570404926)"><path d="M0 0 C43.66 0.17, 87.32 0.33, 120.29 0.46 M0 0 C31.17 0.12, 62.34 0.24, 120.29 0.46" stroke="#000000" stroke-width="1" fill="none"></path></g><g transform="translate(1203.218041758956 471.8296778252152) rotate(0 60.144187369612496 0.22964662570404926)"><path d="M120.29 0.46 L106.67 6.75 L106.72 -5.93 L120.29 0.46" stroke="none" stroke-width="0" fill="#000000" fill-rule="evenodd"></path><path d="M120.29 0.46 C115.35 2.74, 110.4 5.02, 106.67 6.75 M120.29 0.46 C116.76 2.09, 113.23 3.72, 106.67 6.75 M106.67 6.75 C106.69 2.32, 106.7 -2.1, 106.72 -5.93 M106.67 6.75 C106.68 3.81, 106.69 0.88, 106.72 -5.93 M106.72 -5.93 C109.53 -4.61, 112.35 -3.28, 120.29 0.46 M106.72 -5.93 C111.39 -3.73, 116.05 -1.54, 120.29 0.46 M120.29 0.46 C120.29 0.46, 120.29 0.46, 120.29 0.46 M120.29 0.46 C120.29 0.46, 120.29 0.46, 120.29 0.46" stroke="#000000" stroke-width="1" fill="none"></path></g></g><mask></mask><g stroke-linecap="round"><g transform="translate(1328.418907630891 505.9532891800857) rotate(0 -65.17802441010122 -1.3307405523852367)"><path d="M0 0 C-28.45 -0.58, -56.9 -1.16, -130.36 -2.66 M0 0 C-32.19 -0.66, -64.39 -1.31, -130.36 -2.66" stroke="#000000" stroke-width="1" fill="none"></path></g><g transform="translate(1328.418907630891 505.9532891800857) rotate(0 -65.17802441010122 -1.3307405523852367)"><path d="M-130.36 -2.66 L-116.63 -8.72 L-116.89 3.95 L-130.36 -2.66" stroke="none" stroke-width="0" fill="#000000" fill-rule="evenodd"></path><path d="M-130.36 -2.66 C-127.36 -3.98, -124.37 -5.31, -116.63 -8.72 M-130.36 -2.66 C-126.97 -4.16, -123.58 -5.65, -116.63 -8.72 M-116.63 -8.72 C-116.72 -4.6, -116.8 -0.48, -116.89 3.95 M-116.63 -8.72 C-116.72 -4.47, -116.81 -0.22, -116.89 3.95 M-116.89 3.95 C-120.37 2.25, -123.85 0.54, -130.36 -2.66 M-116.89 3.95 C-119.77 2.54, -122.64 1.13, -130.36 -2.66 M-130.36 -2.66 C-130.36 -2.66, -130.36 -2.66, -130.36 -2.66 M-130.36 -2.66 C-130.36 -2.66, -130.36 -2.66, -130.36 -2.66" stroke="#000000" stroke-width="1" fill="none"></path></g></g><mask></mask><g stroke-linecap="round" transform="translate(1560.8052897008897 524.5991364604595) rotate(0 23.64279050120365 21.216110180126748)"><path d="M4.52 7.91 C4.52 7.91, 4.52 7.91, 4.52 7.91 M4.52 7.91 C4.52 7.91, 4.52 7.91, 4.52 7.91 M-0.47 18.59 C2.97 12.59, 7.92 8.31, 14.27 4.05 M-0.16 19.47 C5.67 14.11, 10.19 6.92, 15.7 1.95 M1.07 25.66 C6.99 18.46, 11.82 11.66, 19.18 2.55 M1.27 23.51 C9.4 15.96, 15.73 6.35, 20.35 1.41 M4.71 29.77 C13.13 18.71, 19.31 9.89, 23.88 0.9 M3.42 27.1 C10.24 20.26, 16.14 13.55, 25.78 1.34 M5.07 30.01 C12.75 23.47, 19.38 14.12, 28.83 2.89 M5.31 31.56 C10.39 25.45, 16.58 19.78, 29.69 3.01 M7.04 36.54 C16.57 27.83, 24.09 18.2, 35.17 3.27 M7.19 36.59 C11.99 29.83, 19.27 22.38, 33.84 4.57 M8.49 37.69 C19.17 27.37, 29.76 14.04, 36.78 5.87 M10.21 37.54 C19.18 27.53, 28.01 18.07, 39.12 5.24 M15.71 39.39 C20.83 33.24, 27.21 23.38, 42.95 6.2 M14.78 40.84 C24.03 26.59, 35.92 15.65, 41.06 7.95 M18.72 42.99 C27.73 33.79, 34.26 24.11, 44.38 11.82 M16.84 41.88 C22.9 35.02, 28.73 26.97, 42.88 11.87 M22.65 44.16 C26.72 33.88, 36.75 27.27, 47.97 13.51 M22.15 44.02 C30.9 33.06, 40.86 20.01, 45.13 15.49 M27.09 43.24 C32.46 34.6, 40.4 28.77, 46.83 21.62 M26.62 42.96 C33.59 36.66, 38.56 28.82, 46.67 21.15 M34.25 43.92 C35.49 38.58, 40.43 35.47, 47.61 27.89 M33.32 41.48 C36.02 37.37, 40.15 33.61, 46.98 26.92" stroke="#be4bdb" stroke-width="0.5" fill="none"></path><path d="M19.05 -0.18 C23.92 -1.26, 31.24 0.59, 35.7 3.06 C40.16 5.53, 44.03 10.26, 45.81 14.65 C47.59 19.04, 48.09 25.09, 46.39 29.38 C44.69 33.68, 40.04 38.25, 35.62 40.43 C31.2 42.61, 25.06 43.54, 19.87 42.47 C14.69 41.39, 7.91 37.43, 4.49 34 C1.07 30.57, -0.72 26.28, -0.67 21.88 C-0.62 17.47, 0.38 11.23, 4.8 7.59 C9.22 3.94, 21.36 0.91, 25.83 0.01 C30.31 -0.89, 31.84 1.88, 31.64 2.18 M18.25 0.73 C22.61 -0.29, 29.02 1.47, 33.68 3.69 C38.34 5.91, 44.28 10.08, 46.21 14.05 C48.15 18.02, 47.02 23.22, 45.28 27.48 C43.54 31.74, 39.96 37.22, 35.77 39.59 C31.58 41.97, 25.25 42.15, 20.13 41.72 C15.01 41.3, 8.25 40.36, 5.07 37.05 C1.88 33.73, 1.22 26.41, 1.03 21.85 C0.85 17.29, 1.17 13.32, 3.98 9.67 C6.8 6.02, 15.42 1.21, 17.91 -0.05 C20.4 -1.31, 18.51 1.71, 18.9 2.1" stroke="#000000" stroke-width="1" fill="none"></path></g><g transform="translate(1573.2381059473826 535.8131912618176) rotate(0 10.991996765136719 10)"><text x="10.991996765136719" y="0" font-family="Virgil, Segoe UI Emoji" font-size="16px" fill="#000000" text-anchor="middle" style="white-space: pre;" direction="ltr" dominant-baseline="text-before-edge">MS</text></g><g stroke-linecap="round" transform="translate(1561.6249469647548 635.1887598100989) rotate(0 23.64279050120365 21.21611018012686)"><path d="M8.81 5.01 C8.81 5.01, 8.81 5.01, 8.81 5.01 M8.81 5.01 C8.81 5.01, 8.81 5.01, 8.81 5.01 M0.53 18.08 C6.43 12.29, 10.84 8.73, 16.05 2.67 M1.26 20.61 C4.96 14.1, 9.68 9.72, 16.56 2.95 M0.84 25.83 C8.72 17.48, 17.21 7.83, 22.86 -2.01 M3.17 24.12 C9.84 14.52, 18.44 5.31, 24.14 -0.8 M5.38 28.63 C12.16 22.32, 19.17 13.66, 27.86 0.74 M4.76 28.38 C11.61 19.1, 20.77 10.17, 26.07 2.64 M7.23 31.29 C12.7 27.36, 21.08 18.7, 32.55 4.41 M5.17 32.16 C15.16 21.82, 25.04 9.87, 30.97 4.08 M10.38 34.98 C19.02 24.46, 26.29 14.41, 33.1 6.52 M9.17 36.09 C13.54 30.19, 18.96 23.86, 35.41 6.25 M13.76 39.89 C20.41 27.26, 31.72 16.36, 40.82 4.45 M11.18 38.2 C20.14 28.47, 28.76 19.56, 40.41 6.6 M15.8 42.06 C24.89 31.56, 32.34 19.62, 40.26 8.89 M13.94 41.73 C21.22 32.41, 27.36 24.99, 41.61 9.65 M19.71 42.02 C29.27 33.66, 36.64 21.74, 44.97 11.79 M19.86 40.72 C30.19 29.57, 39.48 19.26, 45.04 13.94 M24.87 40.2 C33.33 30.82, 38.47 24.2, 44.93 14.93 M26.43 40.3 C34.15 31.13, 42.18 22.03, 46.69 17.48 M30.73 42.52 C36.32 36.86, 37.87 33.35, 48.52 21.18 M30.2 41.27 C34.36 35.76, 39.94 30.52, 48.49 19.98" stroke="#be4bdb" stroke-width="0.5" fill="none"></path><path d="M24.28 -0.17 C29.17 -0.55, 35.57 2.27, 39.23 5.16 C42.88 8.04, 45.57 12.79, 46.23 17.16 C46.89 21.52, 45.47 27.34, 43.2 31.36 C40.94 35.37, 37.34 39.72, 32.64 41.23 C27.93 42.74, 19.78 41.99, 14.97 40.42 C10.17 38.84, 6.26 35.43, 3.82 31.78 C1.38 28.14, -0.44 22.96, 0.35 18.56 C1.13 14.15, 4.07 8.4, 8.53 5.34 C12.98 2.27, 23.86 1.01, 27.07 0.15 C30.28 -0.71, 27.86 -0.05, 27.78 0.19 M30.72 2.49 C35.15 3.75, 42.17 5.58, 44.67 9.54 C47.16 13.49, 46.61 21.4, 45.69 26.22 C44.77 31.03, 42.71 35.65, 39.16 38.42 C35.61 41.19, 29.33 42.98, 24.39 42.84 C19.45 42.7, 13.47 40.87, 9.52 37.6 C5.56 34.33, 1.7 27.75, 0.65 23.22 C-0.4 18.69, 0.69 13.91, 3.22 10.41 C5.74 6.9, 10.94 3.48, 15.81 2.2 C20.67 0.92, 29.83 2.59, 32.4 2.74 C34.98 2.89, 31.24 2.77, 31.27 3.11" stroke="#000000" stroke-width="1" fill="none"></path></g><g transform="translate(1574.0577632112477 646.402814611457) rotate(0 10.991996765136719 10)"><text x="10.991996765136719" y="0" font-family="Virgil, Segoe UI Emoji" font-size="16px" fill="#000000" text-anchor="middle" style="white-space: pre;" direction="ltr" dominant-baseline="text-before-edge">MS</text></g><g stroke-linecap="round" transform="translate(1564.2258705729957 744.3130740846739) rotate(0 23.64279050120365 21.216110180126748)"><path d="M5.56 7.48 C5.56 7.48, 5.56 7.48, 5.56 7.48 M5.56 7.48 C5.56 7.48, 5.56 7.48, 5.56 7.48 M-1.81 18.62 C6.43 13.51, 9.11 6.76, 16.44 1.45 M-0.9 19.27 C3.62 15.85, 5.87 14.2, 15.48 3.63 M3.08 22.35 C6.99 14.9, 13.83 9.35, 18.77 2.77 M1.42 23.15 C7.15 18.24, 11.5 12.76, 19.49 2.98 M2.37 26.44 C9.05 23.8, 10.8 19.18, 23.84 3.95 M4.29 27.54 C12.1 19.92, 18.19 10.48, 26.69 2.08 M6.15 33.25 C13.13 22.04, 23.16 12.26, 31.83 4.07 M5.46 30.78 C14.43 22.47, 22.8 12.65, 30.39 2.63 M8.31 34.46 C12.22 30.52, 20.12 19.46, 34.49 1.9 M7.1 36.28 C15.58 26.85, 24.59 17.8, 36.53 2.32 M11.33 36.41 C20.91 25.72, 32.29 13.83, 40.57 5.05 M11.5 37.93 C21.46 24.76, 32.88 11.88, 37.98 6.06 M14.34 38.82 C23.03 31.54, 28.68 24.17, 43.73 7.03 M14.08 38.82 C23.37 30.45, 32.77 19.86, 41.49 9.08 M20.46 40.56 C25.1 33.49, 32.06 24.37, 45.41 11.46 M17.66 41.16 C25.28 32.8, 32.16 26.28, 43.37 11.2 M24.19 42.56 C28.46 37.24, 34.08 27.11, 48.73 15.35 M22.77 43.22 C27.78 37.91, 33.25 30.97, 46.46 14.24 M27.36 41.45 C32.22 38.27, 35.86 32.05, 49.37 21.35 M28.6 43.01 C36.29 33.1, 43.76 24.73, 47.84 20.21 M37.09 38.69 C38.74 37.06, 42.76 32.7, 46.16 27.67 M36 39.36 C38.48 37.81, 39.6 34.21, 46.39 27.45" stroke="#be4bdb" stroke-width="0.5" fill="none"></path><path d="M33.87 1.35 C38.3 3.18, 43.57 8.85, 45.64 13.07 C47.71 17.3, 47.83 22.25, 46.27 26.7 C44.72 31.15, 40.42 37.06, 36.33 39.78 C32.23 42.51, 26.66 43.87, 21.72 43.05 C16.77 42.23, 10.4 38.39, 6.65 34.87 C2.91 31.34, -0.55 26.44, -0.75 21.9 C-0.95 17.36, 2.21 11.05, 5.44 7.62 C8.67 4.18, 12.85 1.38, 18.63 1.3 C24.41 1.22, 35.76 5.18, 40.13 7.13 C44.51 9.09, 44.99 12.97, 44.88 13.04 M14.23 1.91 C18.44 0.22, 25.37 -0.22, 30.16 1.13 C34.95 2.49, 39.97 6.31, 42.99 10.06 C46 13.8, 48.52 19.26, 48.22 23.59 C47.93 27.92, 45.27 32.84, 41.21 36.03 C37.14 39.21, 29.23 42.3, 23.84 42.7 C18.44 43.1, 12.57 41.15, 8.85 38.43 C5.14 35.71, 2.65 30.66, 1.54 26.38 C0.43 22.1, 0.27 16.7, 2.2 12.75 C4.13 8.79, 11.17 4.3, 13.13 2.66 C15.1 1.01, 13.54 2.78, 14.01 2.86" stroke="#000000" stroke-width="1" fill="none"></path></g><g transform="translate(1576.6586868194886 755.527128886032) rotate(0 10.991996765136719 10)"><text x="10.991996765136719" y="0" font-family="Virgil, Segoe UI Emoji" font-size="16px" fill="#000000" text-anchor="middle" style="white-space: pre;" direction="ltr" dominant-baseline="text-before-edge">MS</text></g><g stroke-linecap="round"><g transform="translate(1556.8738697590813 541.6393944878055) rotate(0 -59.491999166409414 -0.576333896809615)"><path d="M0 0 C-44.41 -0.43, -88.82 -0.86, -118.98 -1.15" stroke="#862e9c" stroke-width="1.5" fill="none" stroke-dasharray="8 9"></path></g><g transform="translate(1556.8738697590813 541.6393944878055) rotate(0 -59.491999166409414 -0.576333896809615)"><path d="M0 0 L-13.66 6.21 L-13.53 -6.47 L0 0" stroke="none" stroke-width="0" fill="#862e9c" fill-rule="evenodd"></path><path d="M0 0 C-5.1 2.32, -10.19 4.63, -13.66 6.21 M-13.66 6.21 C-13.62 2.15, -13.58 -1.91, -13.53 -6.47 M-13.53 -6.47 C-10.13 -4.84, -6.73 -3.22, 0 0 M0 0 C0 0, 0 0, 0 0" stroke="#862e9c" stroke-width="1.5" fill="none"></path></g><g transform="translate(1556.8738697590813 541.6393944878055) rotate(0 -59.491999166409414 -0.576333896809615)"><path d="M-118.98 -1.15 L-105.33 -7.36 L-105.45 5.32 L-118.98 -1.15" stroke="none" stroke-width="0" fill="#862e9c" fill-rule="evenodd"></path><path d="M-118.98 -1.15 C-113.89 -3.47, -108.79 -5.79, -105.33 -7.36 M-105.33 -7.36 C-105.37 -3.3, -105.41 0.76, -105.45 5.32 M-105.45 5.32 C-108.85 3.69, -112.25 2.07, -118.98 -1.15 M-118.98 -1.15 C-118.98 -1.15, -118.98 -1.15, -118.98 -1.15" stroke="#862e9c" stroke-width="1.5" fill="none"></path></g></g><mask></mask><g stroke-linecap="round"><g transform="translate(1559.5167891348447 660.8408831040526) rotate(0 -59.48138152335878 0.914094787689578)"><path d="M0 0 C-31.61 0.49, -63.23 0.97, -118.96 1.83" stroke="#862e9c" stroke-width="1.5" fill="none" stroke-dasharray="8 9"></path></g><g transform="translate(1559.5167891348447 660.8408831040526) rotate(0 -59.48138152335878 0.914094787689578)"><path d="M0 0 L-13.5 6.55 L-13.69 -6.13 L0 0" stroke="none" stroke-width="0" fill="#862e9c" fill-rule="evenodd"></path><path d="M0 0 C-3.59 1.74, -7.17 3.48, -13.5 6.55 M-13.5 6.55 C-13.55 3.11, -13.6 -0.34, -13.69 -6.13 M-13.69 -6.13 C-9.2 -4.12, -4.7 -2.1, 0 0 M0 0 C0 0, 0 0, 0 0" stroke="#862e9c" stroke-width="1.5" fill="none"></path></g><g transform="translate(1559.5167891348447 660.8408831040526) rotate(0 -59.48138152335878 0.914094787689578)"><path d="M-118.96 1.83 L-105.47 -4.72 L-105.27 7.96 L-118.96 1.83" stroke="none" stroke-width="0" fill="#862e9c" fill-rule="evenodd"></path><path d="M-118.96 1.83 C-115.38 0.09, -111.79 -1.65, -105.47 -4.72 M-105.47 -4.72 C-105.41 -1.28, -105.36 2.16, -105.27 7.96 M-105.27 7.96 C-109.77 5.95, -114.26 3.93, -118.96 1.83 M-118.96 1.83 C-118.96 1.83, -118.96 1.83, -118.96 1.83" stroke="#862e9c" stroke-width="1.5" fill="none"></path></g></g><mask></mask><g stroke-linecap="round"><g transform="translate(1561.2661970278532 767.2080321650681) rotate(0 -59.3959100921968 -0.7604320018105)"><path d="M0 0 C-31.03 -0.4, -62.07 -0.79, -118.79 -1.52" stroke="#862e9c" stroke-width="1.5" fill="none" stroke-dasharray="8 9"></path></g><g transform="translate(1561.2661970278532 767.2080321650681) rotate(0 -59.3959100921968 -0.7604320018105)"><path d="M0 0 L-13.67 6.16 L-13.51 -6.51 L0 0" stroke="none" stroke-width="0" fill="#862e9c" fill-rule="evenodd"></path><path d="M0 0 C-3.57 1.61, -7.14 3.22, -13.67 6.16 M-13.67 6.16 C-13.64 3.6, -13.61 1.03, -13.51 -6.51 M-13.51 -6.51 C-10.73 -5.17, -7.95 -3.83, 0 0 M0 0 C0 0, 0 0, 0 0" stroke="#862e9c" stroke-width="1.5" fill="none"></path></g><g transform="translate(1561.2661970278532 767.2080321650681) rotate(0 -59.3959100921968 -0.7604320018105)"><path d="M-118.79 -1.52 L-105.12 -7.69 L-105.28 4.99 L-118.79 -1.52" stroke="none" stroke-width="0" fill="#862e9c" fill-rule="evenodd"></path><path d="M-118.79 -1.52 C-115.22 -3.13, -111.65 -4.74, -105.12 -7.69 M-105.12 -7.69 C-105.15 -5.12, -105.18 -2.55, -105.28 4.99 M-105.28 4.99 C-108.06 3.65, -110.84 2.31, -118.79 -1.52 M-118.79 -1.52 C-118.79 -1.52, -118.79 -1.52, -118.79 -1.52" stroke="#862e9c" stroke-width="1.5" fill="none"></path></g></g><mask></mask><g transform="translate(1515.2883612309574 476.9292008920643) rotate(0 63.24993133544922 12)"><text x="0" y="0" font-family="Virgil, Segoe UI Emoji" font-size="20px" fill="#000000" text-anchor="start" style="white-space: pre;" direction="ltr" dominant-baseline="text-before-edge">Microservices</text></g></svg>